<?xml version="1.0" encoding="UTF-8"?>
<svg version="1.1" xmlns="http://www.w3.org/2000/svg" width="225" height="225">
<path d="M0 0 C74.25 0 148.5 0 225 0 C225 74.25 225 148.5 225 225 C150.75 225 76.5 225 0 225 C0 150.75 0 76.5 0 0 Z " fill="#EDF2F7" transform="translate(0,0)"/>
<path d="M0 0 C74.25 0 148.5 0 225 0 C225 74.25 225 148.5 225 225 C150.75 225 76.5 225 0 225 C0 150.75 0 76.5 0 0 Z M106.125 4.875 C102.82341867 6.96499185 99.66946236 8.64532393 96 10 C96 10.66 96 11.32 96 12 C95.319375 12.268125 94.63875 12.53625 93.9375 12.8125 C90.60289191 14.16053306 87.30256763 15.57536298 84 17 C84 17.66 84 18.32 84 19 C83.31421875 19.25136719 82.6284375 19.50273437 81.921875 19.76171875 C78.5397286 21.19506154 75.4144486 22.96192488 72.25 24.8125 C71.0889047 25.48630304 69.9274398 26.15946957 68.765625 26.83203125 C68.16113525 27.18209229 67.55664551 27.53215332 66.93383789 27.89282227 C64.86542162 29.07704999 62.78437949 30.23614615 60.69921875 31.390625 C55.62968449 34.19787825 50.59405609 37.06285091 45.5625 39.9375 C44.68529297 40.43701172 43.80808594 40.93652344 42.90429688 41.45117188 C37.63369024 44.46128252 32.40606543 47.53291263 27.21289062 50.67480469 C25.13700904 51.91795178 23.04420649 53.12254167 20.9375 54.3125 C18.19486643 55.7181639 18.19486643 55.7181639 17 57 C16.88282588 58.42785451 16.83379808 59.86137374 16.81245422 61.29386902 C16.79662796 62.22054382 16.7808017 63.14721863 16.76449585 64.10197449 C16.75238068 65.12688492 16.7402655 66.15179535 16.7277832 67.20776367 C16.71157425 68.28091827 16.6953653 69.35407288 16.67866516 70.45974731 C16.53838775 80.36895961 16.46036103 90.27907748 16.39974689 100.18906689 C16.35873276 106.85286243 16.29828436 113.51489745 16.19067383 120.17797852 C16.08711047 126.61131757 16.0323735 133.04334851 16.01228905 139.47747231 C15.99632397 141.93163585 15.9630242 144.38574969 15.91213417 146.83943748 C15.84426581 150.2762757 15.83913414 153.70789044 15.84887695 157.14526367 C15.81449524 158.16005295 15.78011353 159.17484222 15.74468994 160.22038269 C15.79178163 163.13660202 15.93003321 165.28275134 17 168 C20.04512614 170.69444728 23.31677857 172.33078109 27 174 C28.11511963 174.64775391 29.23023926 175.29550781 30.37915039 175.96289062 C31.84856079 176.80110352 31.84856079 176.80110352 33.34765625 177.65625 C34.44787109 178.28660156 35.54808594 178.91695312 36.68164062 179.56640625 C38.93849096 180.85715254 41.19630722 182.14621137 43.45507812 183.43359375 C49.15136431 186.7010236 54.70180117 190.06698837 60.12963867 193.76269531 C62.37853022 195.25041002 64.68689346 196.47619726 67.125 197.625 C77.79267372 202.79267372 77.79267372 202.79267372 81 206 C82.66500934 206.67079513 84.33206531 207.33651217 86 208 C88.44201668 209.3024089 90.84984443 210.62563706 93.25 212 C94.20519531 212.53367188 94.20519531 212.53367188 95.1796875 213.078125 C99.87881324 215.75762649 99.87881324 215.75762649 101 218 C103.31979381 219.03101947 105.65429915 220.02936517 108 221 C109.485 221.99 109.485 221.99 111 223 C114.33336352 222.63723149 116.75858457 221.07245351 119.5625 219.3125 C122.96830015 217.18172115 126.42994595 215.20625014 129.9609375 213.29296875 C136.10460703 209.9613785 142.17841002 206.51280006 148.2434082 203.04101562 C150.06304708 201.99968692 151.8839958 200.9606769 153.70507812 199.921875 C159.80951971 196.43444253 165.88456923 192.9070442 171.89355469 189.25708008 C173.96784057 188.01919204 176.06659146 186.84334885 178.1875 185.6875 C183.02695405 183.03138756 187.73667974 180.17024451 192.46020508 177.31518555 C196.74145609 174.73447462 201.06036982 172.24833987 205.4609375 169.875 C206.99625803 169.09215164 206.99625803 169.09215164 208 168 C208.11501266 166.57206619 208.16177108 165.13856253 208.18081665 163.70613098 C208.20238831 162.31611877 208.20238831 162.31611877 208.22439575 160.89802551 C208.23493988 159.87311508 208.24548401 158.84820465 208.25634766 157.79223633 C208.27095032 156.71908173 208.28555298 155.64592712 208.30059814 154.54025269 C208.42665447 144.6309625 208.4953382 134.72085753 208.54844093 124.81093311 C208.58423271 118.14728778 208.63759841 111.48509073 208.73388672 104.82202148 C208.82658696 98.3887113 208.87534352 91.95646793 208.89283371 85.52252769 C208.90695056 83.06839937 208.93664046 80.61430971 208.98213577 78.16056252 C209.04274069 74.72401353 209.04687544 71.29170891 209.03759766 67.85473633 C209.06838409 66.83994705 209.09917053 65.82515778 209.13088989 64.77961731 C209.0702434 59.3432687 209.0702434 59.3432687 206.02513885 55.05704498 C203.74102354 53.51518651 201.46608272 52.22466056 199 51 C198.07606445 50.44425293 197.15212891 49.88850586 196.20019531 49.31591797 C195.02602051 48.66067139 195.02602051 48.66067139 193.828125 47.9921875 C192.92779541 47.48695557 192.02746582 46.98172363 191.09985352 46.46118164 C190.15940186 45.9377417 189.2189502 45.41430176 188.25 44.875 C186.20159694 43.72566307 184.15342462 42.57591481 182.10546875 41.42578125 C181.08114746 40.85166504 180.05682617 40.27754883 179.00146484 39.68603516 C165.7547275 32.24484692 152.61058556 24.62671427 139.49560547 16.95629883 C132.85937818 13.07671697 126.20205849 9.23855708 119.51171875 5.453125 C117.63511724 4.36743952 115.80390849 3.20260566 114 2 C110.3899462 2 109.14029615 2.95950792 106.125 4.875 Z " fill="#FEFEFE" transform="translate(0,0)"/>
<path d="M0 0 C2.125 0.75 2.125 0.75 4 2 C4.99 2.33 5.98 2.66 7 3 C7 34.02 7 65.04 7 97 C3.31495822 96.07873956 0.93846377 94.99712405 -2.33203125 93.15625 C-3.37029053 92.57391602 -4.4085498 91.99158203 -5.47827148 91.39160156 C-6.57856689 90.76737305 -7.6788623 90.14314453 -8.8125 89.5 C-10.50838257 88.54432129 -10.50838257 88.54432129 -12.23852539 87.56933594 C-18.7698978 83.87506787 -25.24956346 80.11210862 -31.65380859 76.20214844 C-37.2307306 72.81327839 -42.93406603 69.66187287 -48.66186523 66.53613281 C-52.84887606 64.24096709 -56.92064959 61.82790067 -60.95336914 59.27197266 C-63.11030691 57.93144471 -65.29657084 56.65707232 -67.5 55.39453125 C-68.24121094 54.96849609 -68.98242188 54.54246094 -69.74609375 54.10351562 C-71.27728921 53.22646172 -72.81125427 52.35422908 -74.34765625 51.48632812 C-75.07855469 51.06416016 -75.80945313 50.64199219 -76.5625 50.20703125 C-77.22378906 49.8303833 -77.88507813 49.45373535 -78.56640625 49.06567383 C-79.03949219 48.71400146 -79.51257813 48.3623291 -80 48 C-80 47.34 -80 46.68 -80 46 C-77.8545738 44.77011841 -75.70866738 43.54108708 -73.5625 42.3125 C-72.67401367 41.80299805 -72.67401367 41.80299805 -71.76757812 41.28320312 C-68.42645772 39.37143904 -65.07355875 37.4846401 -61.703125 35.625 C-56.4813725 32.73043534 -51.33638723 29.70921239 -46.1875 26.6875 C-35.55901559 20.4661738 -24.88032053 14.33688204 -14.1784668 8.24291992 C-13.05351807 7.60201416 -11.92856934 6.9611084 -10.76953125 6.30078125 C-9.77542236 5.73528564 -8.78131348 5.16979004 -7.75708008 4.5871582 C-5.90186925 3.51917577 -4.07300815 2.40421297 -2.2722168 1.24682617 C-1.52238525 0.83537354 -0.77255371 0.4239209 0 0 Z " fill="#3B77DF" transform="translate(104,119)"/>
<path d="M0 0 C0 31.35 0 62.7 0 95 C-4.44648328 97.22324164 -5.37655049 97.22945661 -10 96 C-12.91015625 94.57421875 -12.91015625 94.57421875 -16.0625 92.6875 C-17.29648051 91.95896682 -18.53088341 91.23114878 -19.765625 90.50390625 C-20.77399414 89.90473389 -20.77399414 89.90473389 -21.80273438 89.29345703 C-25.05463074 87.37917404 -28.3372556 85.51999251 -31.61816406 83.65600586 C-39.54890414 79.14951157 -47.45554006 74.60446058 -55.29785156 69.94555664 C-59.63563286 67.37237491 -64.00236314 64.8573885 -68.390625 62.37109375 C-70.045177 61.4262915 -70.045177 61.4262915 -71.7331543 60.46240234 C-73.92742283 59.21023561 -76.12672341 57.96684011 -78.33129883 56.73291016 C-79.32669678 56.16233887 -80.32209473 55.59176758 -81.34765625 55.00390625 C-82.69355835 54.24315796 -82.69355835 54.24315796 -84.06665039 53.46704102 C-85.02365845 52.74085571 -85.02365845 52.74085571 -86 52 C-86 51.01 -86 50.02 -86 49 C-84.96782349 48.40481567 -84.96782349 48.40481567 -83.91479492 47.79760742 C-66.08891525 37.51928515 -66.08891525 37.51928515 -48.27954102 27.21240234 C-43.6945134 24.55505365 -39.10329457 21.90876529 -34.5078125 19.26953125 C-32.21340037 17.95076663 -29.91913033 16.63175477 -27.625 15.3125 C-26.50931641 14.67111084 -25.39363281 14.02972168 -24.24414062 13.36889648 C-17.45040044 9.45071952 -10.73072605 5.44996192 -4.125 1.22265625 C-2 0 -2 0 0 0 Z " fill="#3B77DF" transform="translate(111,8)"/>
<path d="M0 0 C3.364601 1.3458404 6.15886867 2.55672823 9.23828125 4.328125 C10.44907349 5.02192261 10.44907349 5.02192261 11.68432617 5.72973633 C12.98527222 6.48226685 12.98527222 6.48226685 14.3125 7.25 C15.23329346 7.77940186 16.15408691 8.30880371 17.1027832 8.85424805 C24.97468825 13.38792023 32.81954475 17.96809946 40.6628418 22.55102539 C47.90024855 26.77911783 55.14472083 30.99471927 62.40103149 35.1902771 C64.08405143 36.16381346 65.76603797 37.13913564 67.44799805 38.11450195 C68.47836182 38.709646 69.50872559 39.30479004 70.5703125 39.91796875 C71.47539551 40.44156982 72.38047852 40.9651709 73.31298828 41.50463867 C76.16776809 43.0933654 79.06809966 44.55933875 82 46 C82 48.64 82 51.28 82 54 C81.45287354 54.31114746 80.90574707 54.62229492 80.34204102 54.94287109 C71.02998283 60.2421002 61.72135386 65.54404164 52.5 71 C45.31928799 75.24818029 38.08391922 79.39558617 30.82983398 83.51708984 C26.56296562 85.945965 22.31239711 88.39563319 18.09765625 90.9140625 C17.33066406 91.37167969 16.56367187 91.82929688 15.7734375 92.30078125 C14.34717546 93.15502653 12.92376455 94.01405897 11.50390625 94.87890625 C10.86453125 95.26175781 10.22515625 95.64460938 9.56640625 96.0390625 C9.01927979 96.37115723 8.47215332 96.70325195 7.90844727 97.04541016 C5.39162038 98.30430655 2.66970297 99.11009901 0 100 C0 67 0 34 0 0 Z " fill="#3B77DE" transform="translate(21,62)"/>
<path d="M0 0 C0 33.33 0 66.66 0 101 C-3.64006375 99.5439745 -6.05245709 98.3369963 -9.1652832 96.18530273 C-11.37638392 94.75684046 -13.65981492 93.52794457 -15.98046875 92.28515625 C-21.95964533 89.04610693 -27.82659866 85.63478038 -33.6875 82.1875 C-41.2353211 77.76355593 -48.80517182 73.39288706 -56.44897461 69.13720703 C-61.74451979 66.17561143 -66.94939708 63.07284776 -72.13110352 59.91674805 C-75.0481571 58.14433544 -77.94171831 56.52914085 -81 55 C-81 52.03 -81 49.06 -81 46 C-79.31197266 45.07380859 -79.31197266 45.07380859 -77.58984375 44.12890625 C-70.15531049 40.03339144 -62.75124473 35.91358567 -55.5 31.5 C-50.29291503 28.3351941 -45.02613314 25.31235633 -39.6875 22.375 C-31.75775878 18.01094574 -23.90190877 13.52357284 -16.0625 9 C-15.19472427 8.50001495 -15.19472427 8.50001495 -14.30941772 7.9899292 C-0.44729758 0 -0.44729758 0 0 0 Z " fill="#3B78DF" transform="translate(204,62)"/>
<path d="M0 0 C4.21024867 1.40341622 6.97268096 2.38697405 10.58984375 4.58203125 C11.44408936 5.09483643 12.29833496 5.6076416 13.1784668 6.13598633 C14.08894775 6.68923584 14.99942871 7.24248535 15.9375 7.8125 C23.62813334 12.42482866 31.36128679 16.93422281 39.1875 21.3125 C49.14639699 26.89579229 58.97673575 32.67866778 68.77807617 38.5324707 C74.79861489 42.12450355 80.84217593 45.64799842 87 49 C84.81701546 52.27447681 83.527485 53.00396445 80.10546875 54.78125 C79.11466309 55.30460937 78.12385742 55.82796875 77.10302734 56.3671875 C76.07902832 56.90601563 75.0550293 57.44484375 74 58 C72.09691932 59.0460276 70.19715503 60.09811187 68.30078125 61.15625 C67.33140625 61.69668945 66.36203125 62.23712891 65.36328125 62.79394531 C55.69533278 68.20044531 46.06601656 73.66489617 36.5 79.25 C35.01487915 80.11443726 35.01487915 80.11443726 33.49975586 80.99633789 C28.9423198 83.65772255 24.41105647 86.34892126 19.9296875 89.13671875 C19.15431641 89.61270508 18.37894531 90.08869141 17.58007812 90.57910156 C16.16092987 91.45334214 14.74994217 92.34104505 13.34960938 93.24511719 C10.21867273 95.16350391 8.37620486 96.02070448 4.6640625 95.81640625 C2 95 2 95 0 94 C0 62.98 0 31.96 0 0 Z " fill="#3B78E0" transform="translate(115,9)"/>
<path d="M0 0 C4.303324 -0.66204985 6.54890333 0.14330478 9.96875 2.5859375 C15.48560651 6.38699845 21.24500624 9.68384477 27.0625 13 C29.37401994 14.32496389 31.68522502 15.65046446 33.99609375 16.9765625 C34.57939453 17.31088287 35.16269531 17.64520325 35.76367188 17.98965454 C42.73912013 21.99061306 49.67497128 26.059221 56.61206055 30.1262207 C61.04571692 32.71901311 65.48725589 35.28814341 69.984375 37.76953125 C70.73380371 38.18348145 71.48323242 38.59743164 72.25537109 39.02392578 C73.61917335 39.77258756 74.98644605 40.51497972 76.35791016 41.24951172 C79.46309058 42.95071365 80.99152195 43.98728292 83 47 C74.24134751 52.56451818 65.27488643 57.70662112 56.22851562 62.78662109 C47.8956013 67.47354918 39.63136724 72.27143867 31.38110352 77.10205078 C24.92170519 80.88324009 18.43990341 84.61966359 11.9296875 88.3125 C8.2044581 90.45823214 4.54009943 92.69689174 0.890625 94.96875 C-1 96 -1 96 -3 96 C-3 64.98 -3 33.96 -3 2 C-2.01 2 -1.02 2 0 2 C0 1.34 0 0.68 0 0 Z " fill="#3B78DF" transform="translate(118,120)"/>
<path d="M0 0 C3.26472791 1.25472752 6.33976024 2.63997914 9.40625 4.3203125 C10.22697998 4.76971191 11.04770996 5.21911133 11.89331055 5.68212891 C12.75351807 6.15827637 13.61372559 6.63442383 14.5 7.125 C15.38405518 7.61274902 16.26811035 8.10049805 17.17895508 8.60302734 C36.12407158 19.12407158 36.12407158 19.12407158 39 22 C39.11069521 23.43034077 39.15290936 24.86605314 39.1673584 26.30059814 C39.17884918 27.22871811 39.19033997 28.15683807 39.20217896 29.11308289 C39.21328201 30.6528051 39.21328201 30.6528051 39.22460938 32.22363281 C39.23599945 33.29839371 39.24738953 34.3731546 39.25912476 35.48048401 C39.36976335 46.72832428 39.41720532 57.97682772 39.45996094 69.22509766 C39.48091805 74.56820942 39.52405579 79.91058433 39.58300781 85.25341797 C39.65393391 91.69315715 39.69076958 98.13223982 39.70307922 104.57234955 C39.71350733 107.03003671 39.73599595 109.48770294 39.77067566 111.94516754 C39.81669621 115.38382606 39.81890269 118.81989267 39.81054688 122.25878906 C39.83414276 123.27717361 39.85773865 124.29555817 39.88204956 125.34480286 C39.80254721 132.09270034 39.80254721 132.09270034 37.48101807 134.71724701 C35.70369118 136.01041883 33.96934612 137.03062199 32 138 C31.11957031 138.51304687 30.23914063 139.02609375 29.33203125 139.5546875 C28.50058594 139.99039063 27.66914063 140.42609375 26.8125 140.875 C23.07975137 142.86948345 19.39582904 144.91321214 15.75 147.0625 C9.89104161 150.50359587 3.98078551 153.84960652 -1.9375 157.1875 C-16.21726696 165.2455509 -30.4875489 173.31898082 -44.625 181.625 C-45.68243408 182.24604614 -45.68243408 182.24604614 -46.76123047 182.87963867 C-49.55451825 184.52750497 -52.30080491 186.20053661 -55 188 C-58.51288711 187.64871129 -61.02426605 185.78544037 -64 184 C-64.70125 183.835 -65.4025 183.67 -66.125 183.5 C-68.49312699 182.86849947 -69.28420075 181.72705984 -71 180 C-73.42047701 178.30885093 -75.96540461 176.82601553 -78.5 175.3125 C-79.17675781 174.89677734 -79.85351562 174.48105469 -80.55078125 174.05273438 C-84.49419445 171.62681061 -84.49419445 171.62681061 -89 171 C-90.0176949 170.0180137 -91.01398399 169.01379111 -92 168 C-93.84703651 166.82965555 -95.72619164 165.70933242 -97.625 164.625 C-98.60726562 164.06039062 -99.58953125 163.49578125 -100.6015625 162.9140625 C-103.10134845 161.50613708 -105.60635633 160.11056576 -108.1171875 158.72265625 C-113.95011186 155.48610205 -119.72799933 152.15620741 -125.5 148.8125 C-126.59570312 148.18408203 -127.69140625 147.55566406 -128.8203125 146.90820312 C-130.37878906 146.00424805 -130.37878906 146.00424805 -131.96875 145.08203125 C-133.38317383 144.26569214 -133.38317383 144.26569214 -134.82617188 143.43286133 C-137 142 -137 142 -138 140 C-133.1725201 141.41292095 -129.2837641 143.42974154 -125 146 C-124.67 145.01 -124.34 144.02 -124 143 C-123.27039063 143.46148437 -122.54078125 143.92296875 -121.7890625 144.3984375 C-114.52020383 148.9392307 -107.14348566 153.2129773 -99.62158203 157.32177734 C-93.99198786 160.40643429 -88.49314879 163.67957911 -83 167 C-79.19225997 169.27887722 -75.3781408 171.54688254 -71.5625 173.8125 C-70.09393555 174.68938477 -70.09393555 174.68938477 -68.59570312 175.58398438 C-67.65791016 176.14021484 -66.72011719 176.69644531 -65.75390625 177.26953125 C-64.91158447 177.77073486 -64.0692627 178.27193848 -63.20141602 178.78833008 C-60.93558787 180.12169855 -60.93558787 180.12169855 -58 181 C-58 150.64 -58 120.28 -58 89 C-57.67 89 -57.34 89 -57 89 C-56.67 106.16 -56.34 123.32 -56 141 C-55.67 123.18 -55.34 105.36 -55 87 C-54.67 87 -54.34 87 -54 87 C-54 118.02 -54 149.04 -54 181 C-45.06771971 175.78959343 -45.06771971 175.78959343 -36.140625 170.5703125 C-26.85610714 165.13774943 -17.56994094 159.71732181 -8.17260742 154.48193359 C-0.89252615 150.41003963 6.29584631 146.17987615 13.49023438 141.95898438 C19.2862815 138.56289306 25.10929088 135.22934952 31 132 C28.66212199 129.5875 26.4026853 127.89801098 23.5 126.1875 C22.7265625 125.72730469 21.953125 125.26710938 21.15625 124.79296875 C18.40297918 123.2289201 15.63175985 121.71121207 12.84765625 120.203125 C7.14348999 117.10103559 1.53490194 113.8524093 -4.0625 110.5625 C-10.78296783 106.62287852 -17.51057168 102.6974064 -24.26953125 98.82421875 C-25.16409782 98.31097801 -25.16409782 98.31097801 -26.07673645 97.78736877 C-28.98148346 96.12095932 -31.88786679 94.457618 -34.79711914 92.79907227 C-35.8411792 92.20022217 -36.88523926 91.60137207 -37.9609375 90.984375 C-38.88696777 90.45553711 -39.81299805 89.92669922 -40.76708984 89.38183594 C-43 88 -43 88 -45 86 C-46.98 85.01 -46.98 85.01 -49 84 C-48.34 80.7 -47.68 77.4 -47 74 C-46.67 74 -46.34 74 -46 74 C-46 76.64 -46 79.28 -46 82 C-45.4131543 82.12439453 -44.82630859 82.24878906 -44.22167969 82.37695312 C-42.00942264 82.99735752 -40.4117657 83.784356 -38.453125 84.96875 C-37.78168457 85.3702124 -37.11024414 85.7716748 -36.41845703 86.18530273 C-35.70286621 86.61915283 -34.98727539 87.05300293 -34.25 87.5 C-32.71170626 88.41925642 -31.17262578 89.33719742 -29.6328125 90.25390625 C-28.85583008 90.71684082 -28.07884766 91.17977539 -27.27832031 91.65673828 C-23.92241634 93.63532633 -20.52752414 95.54055942 -17.125 97.4375 C-5.016347 104.21082986 7.0687888 111.0138721 18.70703125 118.57421875 C21.43850736 120.27266641 24.23585243 121.71806325 27.1484375 123.078125 C29.50414277 124.25100779 31.7434733 125.64608398 34 127 C34.33 121.06 34.66 115.12 35 109 C35.33 109 35.66 109 36 109 C36 115.6 36 122.2 36 129 C36.66 129 37.32 129 38 129 C38.31017428 115.36954885 38.51686904 101.74176471 38.59327984 88.1078825 C38.63198178 81.77582508 38.70563489 75.44828394 38.8605957 69.11791992 C39.00898977 63.00232629 39.06369879 56.89225844 39.05484962 50.7749424 C39.06768148 48.44746712 39.11367829 46.11992043 39.194067 43.79379845 C40.01188134 31.57580747 40.01188134 31.57580747 35.12456512 20.95203209 C30.54909955 17.39990847 25.55664977 15.03193772 20.19660759 12.8988533 C17.46001007 11.77903576 14.97675061 10.35562587 12.4609375 8.80859375 C11.7596875 8.40189453 11.0584375 7.99519531 10.3359375 7.57617188 C9.68882812 7.20041016 9.04171875 6.82464844 8.375 6.4375 C7.65828125 6.02693359 6.9415625 5.61636719 6.203125 5.19335938 C1.11394932 2.22789864 1.11394932 2.22789864 0 0 Z " fill="#E2E7EC" transform="translate(169,35)"/>
<path d="M0 0 C4.66307421 0.57843478 8.25827447 2.60952528 12.25 4.9375 C12.94311279 5.33501465 13.63622559 5.7325293 14.3503418 6.14208984 C16.5716524 7.42002226 18.78622142 8.70907022 21 10 C21.73492676 10.42587402 22.46985352 10.85174805 23.22705078 11.29052734 C25.42466297 12.56451245 27.6193527 13.84334539 29.8125 15.125 C30.46831055 15.507771 31.12412109 15.89054199 31.79980469 16.28491211 C33.09944492 17.05055292 34.38429791 17.84194354 35.65179443 18.65969849 C37.9982283 20.09814445 37.9982283 20.09814445 40.78161621 20.94151306 C44.50624983 22.50795268 46.44227787 23.8332322 49 27 C51.14074483 34.62331689 50.27279259 43.04498663 50.07421875 50.87109375 C50.05369239 53.2375985 50.03803902 55.60415011 50.02705383 57.97071838 C49.98513113 64.18787589 49.87715008 70.40218868 49.75531006 76.6182251 C49.64261089 82.96579503 49.59250767 89.31382651 49.53710938 95.66210938 C49.41927471 108.10932017 49.23163467 120.5544232 49 133 C48.34 133 47.68 133 47 133 C46.25435528 119.77183412 45.81563694 106.57585552 45.68359375 93.328125 C45.66293671 91.54066587 45.64193861 89.75321065 45.62062073 87.96575928 C45.5663005 83.33660115 45.51650737 78.70740589 45.46777344 74.07818604 C45.41688616 69.32422716 45.36155675 64.57031999 45.30664062 59.81640625 C45.20016645 50.54431535 45.09849176 41.2721789 45 32 C44.31911819 32.39857208 43.63823639 32.79714417 42.9367218 33.20779419 C39.80870274 35.03804229 36.67974935 36.86668737 33.55078125 38.6953125 C32.47993286 39.32219971 31.40908447 39.94908691 30.30578613 40.5949707 C24.30698373 44.0991422 18.28540005 47.54632239 12.1875 50.875 C3.21710313 55.80352981 -5.56848424 61.03543005 -14.34887695 66.29248047 C-15.439021 66.94361816 -16.52916504 67.59475586 -17.65234375 68.265625 C-18.7101001 68.89968262 -19.76785645 69.53374023 -20.85766602 70.18701172 C-24.78009252 72.45007902 -28.80716634 74.47381831 -32.88818359 76.43505859 C-35.62599664 78.46388884 -35.99922038 80.09211298 -36.6875 83.375 C-36.83945481 84.91269195 -36.96031475 86.4553279 -37 88 C-38.485 88.495 -38.485 88.495 -40 89 C-40 89.66 -40 90.32 -40 91 C-41.32 91 -42.64 91 -44 91 C-44 111.13 -44 131.26 -44 152 C-44.33 152 -44.66 152 -45 152 C-46.14604916 145.51115938 -46.22039857 139.081864 -46.31640625 132.50390625 C-46.33718735 131.31522446 -46.35796844 130.12654266 -46.37937927 128.90184021 C-46.44451987 125.12211632 -46.50359425 121.34232569 -46.5625 117.5625 C-46.60571899 114.99283177 -46.64933434 112.42317017 -46.69335938 109.85351562 C-46.80016473 103.56908001 -46.90199571 97.2845787 -47 91 C-47.639375 90.896875 -48.27875 90.79375 -48.9375 90.6875 C-49.618125 90.460625 -50.29875 90.23375 -51 90 C-51.33 89.01 -51.66 88.02 -52 87 C-52.66 87 -53.32 87 -54 87 C-54.33 83.7 -54.66 80.4 -55 77 C-56.65 76.34 -58.3 75.68 -60 75 C-60 74.34 -60 73.68 -60 73 C-59.39671875 73.01160156 -58.7934375 73.02320312 -58.171875 73.03515625 C-57.37265625 73.04417969 -56.5734375 73.05320312 -55.75 73.0625 C-54.96109375 73.07410156 -54.1721875 73.08570312 -53.359375 73.09765625 C-50.69521858 73.06703502 -50.69521858 73.06703502 -47 72 C-46.67 52.86 -46.34 33.72 -46 14 C-45.34 13.67 -44.68 13.34 -44 13 C-44 32.47 -44 51.94 -44 72 C-35.85771281 73.4050214 -35.85771281 73.4050214 -29.78515625 70.5625 C-28.40541626 69.72609985 -28.40541626 69.72609985 -26.99780273 68.87280273 C-25.54482788 67.94576538 -25.54482788 67.94576538 -24.0625 67 C-21.93042346 65.69801281 -19.79758421 64.39727393 -17.6640625 63.09765625 C-16.01905762 62.08082764 -16.01905762 62.08082764 -14.34082031 61.04345703 C-8.93368596 57.73611163 -3.4358577 54.59001259 2.0625 51.4375 C3.13387207 50.8197168 4.20524414 50.20193359 5.30908203 49.56542969 C13.74679652 44.70206899 22.21709078 39.89738817 30.70532227 35.12280273 C31.59276123 34.62337158 32.4802002 34.12394043 33.39453125 33.609375 C34.16643799 33.17592773 34.93834473 32.74248047 35.73364258 32.29589844 C38.17736649 30.89858221 40.59084155 29.45597083 43 28 C36.81480364 24.09432436 30.55268366 20.33757692 24.25 16.625 C23.28296143 16.05281738 22.31592285 15.48063477 21.31958008 14.89111328 C17.20899798 12.46208592 13.09810371 10.03876475 8.93359375 7.703125 C7.32677734 6.79820313 7.32677734 6.79820313 5.6875 5.875 C4.78386719 5.37742187 3.88023437 4.87984375 2.94921875 4.3671875 C1 3 1 3 0 0 Z " fill="#EAF1F8" transform="translate(158,31)"/>
<path d="M0 0 C2.73617312 0.81068 4.72834176 1.85610333 7.13452148 3.38183594 C10.9476085 5.74853097 14.78193611 8.05236706 18.67358398 10.28808594 C19.72884277 10.89515381 20.78410156 11.50222168 21.87133789 12.12768555 C23.50401611 13.06559937 23.50401611 13.06559937 25.16967773 14.02246094 C35.34985031 19.88181884 45.49927201 25.78936911 55.60717773 31.77246094 C54.61717773 32.10246094 53.62717773 32.43246094 52.60717773 32.77246094 C51.40061523 32.02996094 51.40061523 32.02996094 50.16967773 31.27246094 C49.32405273 30.77746094 48.47842773 30.28246094 47.60717773 29.77246094 C47.03612305 29.98128906 46.46506836 30.19011719 45.87670898 30.40527344 C42.25498951 30.99123149 39.73850707 28.95434465 36.73217773 27.14746094 C36.05251953 26.75228271 35.37286133 26.35710449 34.67260742 25.94995117 C32.30941391 24.57072173 29.95830368 23.17215672 27.60717773 21.77246094 C25.67263846 20.62992991 23.7377264 19.48802992 21.80249023 18.34667969 C18.85568533 16.60790572 15.91050407 14.86672579 12.97094727 13.11572266 C12.07230957 12.58092285 11.17367187 12.04612305 10.24780273 11.49511719 C9.44890625 11.01824463 8.65000977 10.54137207 7.8269043 10.05004883 C5.79580906 8.88102976 3.70326045 7.82050229 1.60717773 6.77246094 C1.60717773 37.79246094 1.60717773 68.81246094 1.60717773 100.77246094 C1.27717773 100.77246094 0.94717773 100.77246094 0.60717773 100.77246094 C0.11217773 72.06246094 0.11217773 72.06246094 -0.39282227 42.77246094 C-0.72282227 60.26246094 -1.05282227 77.75246094 -1.39282227 95.77246094 C-1.72282227 95.77246094 -2.05282227 95.77246094 -2.39282227 95.77246094 C-2.39282227 66.07246094 -2.39282227 36.37246094 -2.39282227 5.77246094 C-14.27282227 12.70246094 -14.27282227 12.70246094 -26.39282227 19.77246094 C-37.58032227 26.14746094 -37.58032227 26.14746094 -42.72875977 29.06542969 C-45.63570216 30.73100045 -48.492253 32.44359953 -51.30688477 34.26074219 C-51.89058838 34.63602051 -52.47429199 35.01129883 -53.07568359 35.39794922 C-54.56193556 36.36651792 -56.03480018 37.35555067 -57.50610352 38.34667969 C-60.50755702 39.82912966 -62.85353817 40.00059398 -66.14208984 40.30004883 C-70.90160221 41.29903532 -74.9612129 44.16144016 -79.08032227 46.64746094 C-80.00393555 47.19015625 -80.92754883 47.73285156 -81.87915039 48.29199219 C-84.39215826 49.77193491 -86.89447362 51.26794049 -89.39282227 52.77246094 C-90.25103577 53.08577362 -91.10924927 53.3990863 -91.99346924 53.72189331 C-94.81494338 56.13321981 -94.79173025 56.66843774 -95.07484436 60.22418213 C-95.12606701 62.15154497 -95.14918531 64.07976986 -95.15087891 66.0078125 C-95.17088455 67.06014572 -95.1908902 68.11247894 -95.21150208 69.19670105 C-95.26932877 72.6857425 -95.28871181 76.17361041 -95.30297852 79.66308594 C-95.32411792 82.08583985 -95.34572555 84.50858972 -95.36778259 86.93133545 C-95.40679215 92.01567587 -95.42400821 97.09960109 -95.42919922 102.18408203 C-95.43986125 108.69675659 -95.52881332 115.20579595 -95.63745975 121.71747208 C-95.70811305 126.72422082 -95.7245649 131.73009386 -95.72604179 136.73729706 C-95.73563205 139.13758987 -95.76494899 141.5378884 -95.81440926 143.93769073 C-96.68117426 155.70903774 -96.68117426 155.70903774 -93.15000534 166.4828949 C-89.98278117 169.29954448 -86.44593119 170.71474219 -82.39282227 171.77246094 C-83.05282227 172.10246094 -83.71282227 172.43246094 -84.39282227 172.77246094 C-86.95922852 171.59277344 -86.95922852 171.59277344 -89.95532227 169.89746094 C-91.44225586 169.06601562 -91.44225586 169.06601562 -92.95922852 168.21777344 C-95.39282227 166.77246094 -95.39282227 166.77246094 -96.39282227 165.77246094 C-96.49919858 164.3397126 -96.53686871 162.90179181 -96.54672241 161.46513367 C-96.55532288 160.53556854 -96.56392334 159.60600342 -96.57278442 158.64826965 C-96.57917435 157.10619087 -96.57917435 157.10619087 -96.58569336 155.53295898 C-96.59795959 153.9184082 -96.59795959 153.9184082 -96.61047363 152.27124023 C-96.63538391 148.69222582 -96.65185746 145.11325119 -96.66625977 141.53417969 C-96.67424528 139.70612258 -96.67424528 139.70612258 -96.68239212 137.84113503 C-96.70914736 131.39157362 -96.72851524 124.94203173 -96.74291992 118.49243164 C-96.75528613 113.14266224 -96.78346904 107.79322436 -96.82495117 102.44360352 C-96.87413321 95.99742504 -96.89902358 89.55159227 -96.906147 83.10523415 C-96.91288125 80.64397222 -96.92815915 78.18271864 -96.95203781 75.72156334 C-96.98351866 72.28067813 -96.98375127 68.84113681 -96.97631836 65.40014648 C-96.99272369 64.37816666 -97.00912903 63.35618683 -97.02603149 62.30323792 C-96.96472486 55.39006123 -96.96472486 55.39006123 -93.99777222 52.18603516 C-93.13813873 51.71955566 -92.27850525 51.25307617 -91.39282227 50.77246094 C-90.64613281 50.36165283 -89.89944336 49.95084473 -89.13012695 49.52758789 C-87.98398926 48.99331177 -87.98398926 48.99331177 -86.81469727 48.44824219 C-80.90736575 45.58530709 -75.29179202 42.29802965 -69.64282227 38.95996094 C-67.51809635 37.71209831 -65.39309783 36.46469971 -63.26782227 35.21777344 C-62.25461914 34.62254883 -61.24141602 34.02732422 -60.19750977 33.4140625 C-55.63874109 30.74578599 -51.0494608 28.1330904 -46.45532227 25.52636719 C-42.17942399 23.07754279 -37.94816199 20.55426868 -33.72094727 18.02246094 C-31.39282227 16.77246094 -31.39282227 16.77246094 -29.39282227 16.77246094 C-29.39282227 16.11246094 -29.39282227 15.45246094 -29.39282227 14.77246094 C-27.77032286 13.93426936 -26.1447373 13.10204934 -24.51782227 12.27246094 C-23.61290039 11.80839844 -22.70797852 11.34433594 -21.77563477 10.86621094 C-19.39282227 9.77246094 -19.39282227 9.77246094 -17.39282227 9.77246094 C-17.06282227 8.78246094 -16.73282227 7.79246094 -16.39282227 6.77246094 C-14.44796098 6.01429467 -12.49776419 5.26565137 -10.51782227 4.60449219 C-8.09804331 3.75471672 -8.09804331 3.75471672 -5.20532227 1.52246094 C-2.39282227 -0.22753906 -2.39282227 -0.22753906 0 0 Z " fill="#DEE3F7" transform="translate(113.392822265625,2.2275390625)"/>
<path d="M0 0 C0.33 0 0.66 0 1 0 C1 31.02 1 62.04 1 94 C2.98 94.495 2.98 94.495 5 95 C2.5907496 97.91646101 0.74522069 98.63098561 -3 99 C-5.17578125 98.109375 -5.17578125 98.109375 -7.3125 96.75 C-10.14071724 95.04468285 -12.73466297 93.64383624 -15.875 92.625 C-20.58483736 91.0045127 -24.48831667 88.21458822 -28.58203125 85.42578125 C-30.96286 83.74603396 -30.96286 83.74603396 -34 84 C-35.0176949 83.0180137 -36.01398399 82.01379111 -37 81 C-38.84703651 79.82965555 -40.72619164 78.70933242 -42.625 77.625 C-43.60726562 77.06039062 -44.58953125 76.49578125 -45.6015625 75.9140625 C-48.10134845 74.50613708 -50.60635633 73.11056576 -53.1171875 71.72265625 C-58.95011186 68.48610205 -64.72799933 65.15620741 -70.5 61.8125 C-71.59570312 61.18408203 -72.69140625 60.55566406 -73.8203125 59.90820312 C-74.85929687 59.30556641 -75.89828125 58.70292969 -76.96875 58.08203125 C-77.91169922 57.53780518 -78.85464844 56.9935791 -79.82617188 56.43286133 C-82 55 -82 55 -83 53 C-78.1725201 54.41292095 -74.2837641 56.42974154 -70 59 C-69.67 58.01 -69.34 57.02 -69 56 C-68.27039063 56.46148437 -67.54078125 56.92296875 -66.7890625 57.3984375 C-59.52020383 61.9392307 -52.14348566 66.2129773 -44.62158203 70.32177734 C-38.99198786 73.40643429 -33.49314879 76.67957911 -28 80 C-24.19225997 82.27887722 -20.3781408 84.54688254 -16.5625 86.8125 C-15.58345703 87.39708984 -14.60441406 87.98167969 -13.59570312 88.58398438 C-12.65791016 89.14021484 -11.72011719 89.69644531 -10.75390625 90.26953125 C-9.91158447 90.77073486 -9.0692627 91.27193848 -8.20141602 91.78833008 C-5.93558787 93.12169855 -5.93558787 93.12169855 -3 94 C-3 63.64 -3 33.28 -3 2 C-2.67 2 -2.34 2 -2 2 C-1.67 19.16 -1.34 36.32 -1 54 C-0.67 36.18 -0.34 18.36 0 0 Z " fill="#E0E5F7" transform="translate(114,122)"/>
<path d="M0 0 C0.33 0 0.66 0 1 0 C1 19.47 1 38.94 1 59 C2.32 59.33 3.64 59.66 5 60 C5 60.66 5 61.32 5 62 C6.98 62 8.96 62 11 62 C10.690625 62.845625 10.38125 63.69125 10.0625 64.5625 C8.98461179 68.0497854 8.43418696 71.38177535 8 75 C6.515 75.495 6.515 75.495 5 76 C5 76.66 5 77.32 5 78 C3.68 78 2.36 78 1 78 C1 98.13 1 118.26 1 139 C0.67 139 0.34 139 0 139 C-1.14604916 132.51115938 -1.22039857 126.081864 -1.31640625 119.50390625 C-1.33718735 118.31522446 -1.35796844 117.12654266 -1.37937927 115.90184021 C-1.44451987 112.12211632 -1.50359425 108.34232569 -1.5625 104.5625 C-1.60571899 101.99283177 -1.64933434 99.42317017 -1.69335938 96.85351562 C-1.80016473 90.56908001 -1.90199571 84.2845787 -2 78 C-2.639375 77.896875 -3.27875 77.79375 -3.9375 77.6875 C-4.618125 77.460625 -5.29875 77.23375 -6 77 C-6.33 76.01 -6.66 75.02 -7 74 C-7.66 74 -8.32 74 -9 74 C-9.33 70.7 -9.66 67.4 -10 64 C-11.65 63.34 -13.3 62.68 -15 62 C-15 61.34 -15 60.68 -15 60 C-14.39671875 60.01160156 -13.7934375 60.02320313 -13.171875 60.03515625 C-12.37265625 60.04417969 -11.5734375 60.05320313 -10.75 60.0625 C-9.96109375 60.07410156 -9.1721875 60.08570313 -8.359375 60.09765625 C-6.08602141 60.00356049 -4.18870232 59.58351934 -2 59 C-1.9845388 57.91338829 -1.9845388 57.91338829 -1.96876526 56.80482483 C-1.87095232 49.99148098 -1.76846141 43.178222 -1.66066074 36.36502934 C-1.60540045 32.86195645 -1.55197566 29.35887527 -1.50268555 25.85571289 C-1.44599332 21.83209856 -1.38142599 17.80864469 -1.31640625 13.78515625 C-1.29969376 12.52163834 -1.28298126 11.25812042 -1.26576233 9.95631409 C-1.24581711 8.795186 -1.22587189 7.63405792 -1.20532227 6.43774414 C-1.18977798 5.40960098 -1.1742337 4.38145782 -1.15821838 3.32215881 C-1 1 -1 1 0 0 Z " fill="#F9FCFB" transform="translate(113,44)"/>
<path d="M0 0 C0 33.33 0 66.66 0 101 C-3.9132706 99.43469176 -6.13199262 98.35471762 -9.3125 95.875 C-10.00988281 95.33617187 -10.70726562 94.79734375 -11.42578125 94.2421875 C-11.94527344 93.83226562 -12.46476563 93.42234375 -13 93 C-12.34 92.01 -11.68 91.02 -11 90 C-7.875 89.8125 -7.875 89.8125 -5 90 C-4.27092269 84.77839541 -3.8771721 79.76624674 -3.88647461 74.48242188 C-3.88632858 73.77899658 -3.88618256 73.07557129 -3.8860321 72.35083008 C-3.88672131 70.05677052 -3.89446655 67.76279513 -3.90234375 65.46875 C-3.90421146 63.86592656 -3.9056337 62.26310254 -3.90663147 60.66027832 C-3.91042883 56.46490878 -3.92023504 52.26957448 -3.93133545 48.07421875 C-3.94160969 43.78385901 -3.94614191 39.49349352 -3.95117188 35.203125 C-3.96186009 26.80206726 -3.97890268 18.40103803 -4 10 C-6.31 10.33 -8.62 10.66 -11 11 C-11.33 13.31 -11.66 15.62 -12 18 C-14.97 17.67 -17.94 17.34 -21 17 C-21 16.34 -21 15.68 -21 15 C-21.66 15 -22.32 15 -23 15 C-23 14.34 -23 13.68 -23 13 C-20.99633789 11.57958984 -20.99633789 11.57958984 -18.22265625 9.9609375 C-17.23458984 9.38085938 -16.24652344 8.80078125 -15.22851562 8.203125 C-14.18373047 7.59984375 -13.13894531 6.9965625 -12.0625 6.375 C-11.02158203 5.76398438 -9.98066406 5.15296875 -8.90820312 4.5234375 C-1.15878732 0 -1.15878732 0 0 0 Z " fill="#2F66CF" transform="translate(204,62)"/>
<path d="M0 0 C0.96462158 0.57536499 0.96462158 0.57536499 1.94873047 1.16235352 C2.93873047 1.49235352 3.92873047 1.82235352 4.94873047 2.16235352 C4.94873047 32.85235352 4.94873047 63.54235352 4.94873047 95.16235352 C4.61873047 95.16235352 4.28873047 95.16235352 3.94873047 95.16235352 C3.45373047 75.85735352 3.45373047 75.85735352 2.94873047 56.16235352 C1.95873047 56.16235352 0.96873047 56.16235352 -0.05126953 56.16235352 C-0.07632568 55.27676758 -0.10138184 54.39118164 -0.12719727 53.47875977 C-0.72310565 30.80331073 -0.72310565 30.80331073 -2.05126953 8.16235352 C-3.67727894 8.24935402 -5.30216631 8.35753161 -6.92626953 8.47485352 C-8.28365234 8.56186523 -8.28365234 8.56186523 -9.66845703 8.65063477 C-12.41348554 8.95055741 -12.41348554 8.95055741 -14.05126953 12.16235352 C-14.71126953 12.16235352 -15.37126953 12.16235352 -16.05126953 12.16235352 C-16.05126953 11.50235352 -16.05126953 10.84235352 -16.05126953 10.16235352 C-16.71126953 10.16235352 -17.37126953 10.16235352 -18.05126953 10.16235352 C-18.38126953 11.48235352 -18.71126953 12.80235352 -19.05126953 14.16235352 C-20.70126953 14.49235352 -22.35126953 14.82235352 -24.05126953 15.16235352 C-23.72126953 14.50235352 -23.39126953 13.84235352 -23.05126953 13.16235352 C-22.06126953 13.16235352 -21.07126953 13.16235352 -20.05126953 13.16235352 C-19.88369141 12.43918945 -19.71611328 11.71602539 -19.54345703 10.97094727 C-17.36018465 6.86159428 -14.17923323 5.40345765 -10.17626953 3.22485352 C-9.45568359 2.80139648 -8.73509766 2.37793945 -7.99267578 1.94165039 C-7.29271484 1.55170898 -6.59275391 1.16176758 -5.87158203 0.76000977 C-4.91662842 0.22645874 -4.91662842 0.22645874 -3.94238281 -0.31787109 C-2.05126953 -0.83764648 -2.05126953 -0.83764648 0 0 Z " fill="#4C96F3" transform="translate(106.05126953125,119.837646484375)"/>
<path d="M0 0 C4.08078416 1.63231366 7.17484317 3.2583317 10.8125 5.625 C11.78832031 6.25664063 12.76414062 6.88828125 13.76953125 7.5390625 C14.50558594 8.02117187 15.24164063 8.50328125 16 9 C12 10 12 10 3 11 C2.67 37.07 2.34 63.14 2 90 C2.99 90 3.98 90 5 90 C5 90.66 5 91.32 5 92 C6.0828125 91.505 6.0828125 91.505 7.1875 91 C10.01697427 89.99396471 12.02895466 89.83022598 15 90 C13.51187678 94.07462309 11.26814996 95.28659555 7.5 97.25 C6.03046875 98.03117187 6.03046875 98.03117187 4.53125 98.828125 C2 100 2 100 0 100 C0 67 0 34 0 0 Z " fill="#3F6CD1" transform="translate(21,62)"/>
<path d="M0 0 C1.42944945 2.35438733 2.08661261 3.48032433 1.625 6.25 C1.41875 6.8275 1.2125 7.405 1 8 C-0.5778125 8.12375 -0.5778125 8.12375 -2.1875 8.25 C-6.35867284 9.07055859 -7.92142108 10.17103559 -11 13 C-14.24693253 15.8279735 -16.7206584 16.51371118 -21 17 C-21.12375 18.134375 -21.2475 19.26875 -21.375 20.4375 C-21.58125 21.613125 -21.7875 22.78875 -22 24 C-24.46278801 25.231394 -26.2795055 25.07159196 -29 25 C-29 25.66 -29 26.32 -29 27 C-28.443125 27.268125 -27.88625 27.53625 -27.3125 27.8125 C-25 29 -25 29 -22.5625 30.5625 C-19.97938206 32.01156616 -17.91240988 32.58394145 -15 33 C-14 36 -14 36 -14 40 C-17.95788424 38.54221575 -21.44334866 36.65959473 -25.0625 34.5 C-28.34653525 32.54531571 -31.57838546 30.71080727 -35 29 C-35 26.03 -35 23.06 -35 20 C-33.87464844 19.38253906 -32.74929687 18.76507813 -31.58984375 18.12890625 C-22.56732944 13.15842524 -13.6448 8.0680092 -4.84375 2.71484375 C-3.25873823 1.75904682 -1.65549028 0.82774514 0 0 Z " fill="#4994F5" transform="translate(158,88)"/>
<path d="M0 0 C14.66887093 7.92491968 29.13083934 16.19973878 43.54589844 24.57519531 C46.85909808 26.49877601 50.17541467 28.41694927 53.49169922 30.33520508 C61.33747003 34.87366005 69.17591321 39.42423667 77 44 C75.515 44.495 75.515 44.495 74 45 C73.505 45.99 73.505 45.99 73 47 C58.50778745 38.74874696 44.03696187 30.46647718 29.64453125 22.04199219 C19.80494338 16.2878278 9.90915322 10.63332858 0 5 C0 3.33333333 0 1.66666667 0 0 Z " fill="#E6EEF7" transform="translate(24,59)"/>
<path d="M0 0 C0.99 0 1.98 0 3 0 C3 34.98 3 69.96 3 106 C2.34 106 1.68 106 1 106 C0.22027001 92.68905708 -0.13921763 79.44165173 -0.09765625 66.109375 C-0.0957836 64.29949992 -0.09436372 62.48962431 -0.09336853 60.67974854 C-0.08960991 55.99135863 -0.07983934 51.30300133 -0.06866455 46.61462402 C-0.0583045 41.80037883 -0.05384015 36.9861282 -0.04882812 32.171875 C-0.03820872 22.78123593 -0.02121593 13.39062071 0 4 C-0.66 4 -1.32 4 -2 4 C-1.34 2.68 -0.68 1.36 0 0 Z " fill="#F6F5F8" transform="translate(204,58)"/>
<path d="M0 0 C4.8274799 1.41292095 8.7162359 3.42974154 13 6 C13.33 5.01 13.66 4.02 14 3 C14.72960938 3.46148437 15.45921875 3.92296875 16.2109375 4.3984375 C23.53067947 8.97101705 30.96894113 13.25329694 38.5300293 17.4140625 C43.39623506 20.09570675 48.19750394 22.85597294 52.94140625 25.75 C55.92632676 27.56247545 58.96005269 29.28176891 62 31 C61.67 31.99 61.34 32.98 61 34 C63.64 35.65 66.28 37.3 69 39 C68.01 39.495 68.01 39.495 67 40 C64.45197048 38.58574028 62.01436614 37.12864968 59.5625 35.5625 C58.21347934 34.70356821 56.86074435 33.85043502 55.50390625 33.00390625 C54.90392822 32.62049072 54.3039502 32.2370752 53.68579102 31.84204102 C51.86676069 30.7765746 51.86676069 30.7765746 49 31 C47.9823051 30.0180137 46.98601601 29.01379111 46 28 C44.15296349 26.82965555 42.27380836 25.70933242 40.375 24.625 C39.39273438 24.06039062 38.41046875 23.49578125 37.3984375 22.9140625 C34.89865155 21.50613708 32.39364367 20.11056576 29.8828125 18.72265625 C24.04988814 15.48610205 18.27200067 12.15620741 12.5 8.8125 C11.40429688 8.18408203 10.30859375 7.55566406 9.1796875 6.90820312 C8.14070313 6.30556641 7.10171875 5.70292969 6.03125 5.08203125 C5.08830078 4.53780518 4.14535156 3.9935791 3.17382812 3.43286133 C1 2 1 2 0 0 Z " fill="#EEF2F7" transform="translate(31,175)"/>
<path d="M0 0 C0.66 0.33 1.32 0.66 2 1 C1.23538452 1.43868408 1.23538452 1.43868408 0.45532227 1.88623047 C-1.8454816 3.21035478 -4.14150678 4.54255309 -6.4375 5.875 C-7.23994141 6.33519531 -8.04238281 6.79539062 -8.86914062 7.26953125 C-9.63291016 7.71425781 -10.39667969 8.15898437 -11.18359375 8.6171875 C-12.24404907 9.22989502 -12.24404907 9.22989502 -13.32592773 9.85498047 C-15.156435 10.90804949 -15.156435 10.90804949 -16 13 C-15.34 13.33 -14.68 13.66 -14 14 C-15.48810456 14.99715203 -16.99127776 15.97182688 -18.5 16.9375 C-19.3353125 17.48277344 -20.170625 18.02804688 -21.03125 18.58984375 C-24 20 -24 20 -27.67578125 20.32421875 C-33.40414527 20.86349422 -37.85209233 23.95666915 -42.6875 26.875 C-43.61111328 27.41769531 -44.53472656 27.96039063 -45.48632812 28.51953125 C-47.999336 29.99947397 -50.50165135 31.49547956 -53 33 C-53.8582135 33.31331268 -54.716427 33.62662537 -55.60064697 33.94943237 C-58.42212112 36.36075888 -58.39890799 36.89597681 -58.68202209 40.45172119 C-58.73324475 42.37908403 -58.75636304 44.30730893 -58.75805664 46.23535156 C-58.77806229 47.28768478 -58.79806793 48.34001801 -58.81867981 49.42424011 C-58.87650651 52.91328157 -58.89588954 56.40114947 -58.91015625 59.890625 C-58.93129565 62.31337891 -58.95290329 64.73612878 -58.97496033 67.15887451 C-59.01396988 72.24321493 -59.03118594 77.32714016 -59.03637695 82.41162109 C-59.04703899 88.92429565 -59.13599106 95.43333501 -59.24463749 101.94501114 C-59.31529078 106.95175988 -59.33174263 111.95763293 -59.33321953 116.96483612 C-59.34280978 119.36512893 -59.37212672 121.76542747 -59.42158699 124.1652298 C-60.288352 135.9365768 -60.288352 135.9365768 -56.75718307 146.71043396 C-53.5899589 149.52708354 -50.05310893 150.94228126 -46 152 C-46.66 152.33 -47.32 152.66 -48 153 C-50.56640625 151.8203125 -50.56640625 151.8203125 -53.5625 150.125 C-55.04943359 149.29355469 -55.04943359 149.29355469 -56.56640625 148.4453125 C-59 147 -59 147 -60 146 C-60.10637631 144.56725166 -60.14404645 143.12933087 -60.15390015 141.69267273 C-60.16250061 140.7631076 -60.17110107 139.83354248 -60.17996216 138.87580872 C-60.18635208 137.33372993 -60.18635208 137.33372993 -60.19287109 135.76049805 C-60.20513733 134.14594727 -60.20513733 134.14594727 -60.21765137 132.4987793 C-60.24256164 128.91976488 -60.2590352 125.34079025 -60.2734375 121.76171875 C-60.28142302 119.93366164 -60.28142302 119.93366164 -60.28956985 118.06867409 C-60.31632509 111.61911268 -60.33569297 105.1695708 -60.35009766 98.7199707 C-60.36246386 93.3702013 -60.39064677 88.02076343 -60.43212891 82.67114258 C-60.48131094 76.2249641 -60.50620132 69.77913134 -60.51332474 63.33277321 C-60.52005899 60.87151128 -60.53533689 58.4102577 -60.55921555 55.9491024 C-60.59069639 52.50821719 -60.59092901 49.06867587 -60.58349609 45.62768555 C-60.59990143 44.60570572 -60.61630676 43.58372589 -60.63320923 42.53077698 C-60.57190259 35.61760029 -60.57190259 35.61760029 -57.60494995 32.41357422 C-56.31549973 31.71385498 -56.31549973 31.71385498 -55 31 C-54.25331055 30.58919189 -53.50662109 30.17838379 -52.73730469 29.75512695 C-51.97321289 29.39894287 -51.20912109 29.04275879 -50.421875 28.67578125 C-44.51454181 25.81284535 -38.89898075 22.52555466 -33.25 19.1875 C-31.13178008 17.94355112 -29.01329175 16.70005917 -26.89453125 15.45703125 C-25.37593506 14.56491943 -25.37593506 14.56491943 -23.82666016 13.65478516 C-18.24562367 10.38753128 -12.62327102 7.1938363 -7 4 C-6.38914551 3.62649414 -5.77829102 3.25298828 -5.14892578 2.86816406 C-3.46607367 1.85437684 -1.73545055 0.92085131 0 0 Z " fill="#B2BCB2" transform="translate(77,22)"/>
<path d="M0 0 C0.33 0 0.66 0 1 0 C1 12.87 1 25.74 1 39 C-3.45335214 41.22667607 -4.36963896 41.2408908 -9 40 C-12.2109375 38.40625 -12.2109375 38.40625 -15.375 36.5 C-16.43460937 35.8709375 -17.49421875 35.241875 -18.5859375 34.59375 C-19.38257812 34.0678125 -20.17921875 33.541875 -21 33 C-21 32.67 -21 32.34 -21 32 C-16.05 32 -11.1 32 -6 32 C-5.93941406 30.30230469 -5.87882812 28.60460937 -5.81640625 26.85546875 C-5.73200125 24.63280374 -5.64735323 22.41014795 -5.5625 20.1875 C-5.52318359 19.06794922 -5.48386719 17.94839844 -5.44335938 16.79492188 C-5.40146484 15.72177734 -5.35957031 14.64863281 -5.31640625 13.54296875 C-5.27974854 12.55321045 -5.24309082 11.56345215 -5.20532227 10.54370117 C-5 8 -5 8 -4 5 C-3.34 5 -2.68 5 -2 5 C-1.67 11.27 -1.34 17.54 -1 24 C-0.67 16.08 -0.34 8.16 0 0 Z " fill="#5098F5" transform="translate(110,64)"/>
<path d="M0 0 C4.56474276 0.55667595 7.8766689 2.52548486 11.6875 4.9375 C17.68603649 8.64124841 23.76505407 12.15627201 29.9375 15.5625 C30.73696045 16.00392334 31.5364209 16.44534668 32.36010742 16.90014648 C34.23892159 17.93552059 36.11928436 18.96808386 38 20 C38 20.99 38 21.98 38 23 C33.38 23 28.76 23 24 23 C24 20.36 24 17.72 24 15 C23.030625 15 22.06125 15 21.0625 15 C16.70833333 15 12.35416667 15 8 15 C8 12.03 8 9.06 8 6 C5.36 6.33 2.72 6.66 0 7 C0 4.66666667 0 2.33333333 0 0 Z " fill="#3569CF" transform="translate(128,17)"/>
<path d="M0 0 C0.66 0.33 1.32 0.66 2 1 C2 11.56 2 22.12 2 33 C2.66 33 3.32 33 4 33 C4 51.15 4 69.3 4 88 C3.67 88 3.34 88 3 88 C2.67 75.13 2.34 62.26 2 49 C1.01 49 0.02 49 -1 49 C-1.14586468 44.73578576 -1.28806489 40.47146763 -1.42724609 36.20703125 C-1.47480543 34.76429151 -1.52326989 33.32158125 -1.57275391 31.87890625 C-1.92510052 21.58175623 -2.06240077 11.30306074 -2 1 C-1.34 0.67 -0.68 0.34 0 0 Z " fill="#4685E9" transform="translate(107,127)"/>
<path d="M0 0 C3.26472791 1.25472752 6.33976024 2.63997914 9.40625 4.3203125 C10.22697998 4.76971191 11.04770996 5.21911133 11.89331055 5.68212891 C12.75351807 6.15827637 13.61372559 6.63442383 14.5 7.125 C15.82608276 7.85662354 15.82608276 7.85662354 17.17895508 8.60302734 C36.12407158 19.12407158 36.12407158 19.12407158 39 22 C39.11069521 23.43034077 39.15290936 24.86605314 39.1673584 26.30059814 C39.17884918 27.22871811 39.19033997 28.15683807 39.20217896 29.11308289 C39.20958099 30.13956436 39.21698303 31.16604584 39.22460938 32.22363281 C39.24169449 33.83577415 39.24169449 33.83577415 39.25912476 35.48048401 C39.36976335 46.72832428 39.41720532 57.97682772 39.45996094 69.22509766 C39.48091805 74.56820942 39.52405579 79.91058433 39.58300781 85.25341797 C39.65393391 91.69315715 39.69076958 98.13223982 39.70307922 104.57234955 C39.71350733 107.03003671 39.73599595 109.48770294 39.77067566 111.94516754 C39.81669621 115.38382606 39.81890269 118.81989267 39.81054688 122.25878906 C39.8459407 123.78636589 39.8459407 123.78636589 39.88204956 125.34480286 C39.80256118 132.09151438 39.80256118 132.09151438 37.48843384 134.7110672 C35.70920375 136.0050401 33.96811389 137.0234765 32 138 C31.04996094 138.57105469 30.09992188 139.14210937 29.12109375 139.73046875 C24.50376851 142.2374008 20.10538821 144.62016535 15 146 C17.24731418 143.46390172 19.20836566 142.35520024 22.36050415 141.16320801 C31.8141295 137.20636133 31.8141295 137.20636133 38.13677216 129.56747437 C39.96435175 122.32848098 39.66284954 114.88051697 39.5234375 107.46875 C39.53625489 105.06698062 39.55471023 102.66523535 39.57852173 100.2635498 C39.60645867 95.24149803 39.56612416 90.22588852 39.47705078 85.20458984 C39.36872347 78.78751994 39.43110429 72.38553352 39.5449276 65.96901703 C39.61382543 61.01259016 39.5916411 56.05970229 39.54249954 51.10316467 C39.52988718 48.73981404 39.54516471 46.37613465 39.58961105 44.01316833 C40.16900725 31.65062782 40.16900725 31.65062782 35.10433578 20.9416523 C30.53024566 17.39323944 25.54790371 15.02316624 20.1893692 12.89451027 C17.45467435 11.77719637 14.97440548 10.35415514 12.4609375 8.80859375 C11.7596875 8.40189453 11.0584375 7.99519531 10.3359375 7.57617188 C9.68882812 7.20041016 9.04171875 6.82464844 8.375 6.4375 C7.65828125 6.02693359 6.9415625 5.61636719 6.203125 5.19335938 C1.11394932 2.22789864 1.11394932 2.22789864 0 0 Z " fill="#B6B6B6" transform="translate(169,35)"/>
<path d="M0 0 C0.66 0 1.32 0 2 0 C2.02581315 7.53579966 2.04305596 15.07158752 2.05493164 22.60742188 C2.05989368 25.15950954 2.06666545 27.71159447 2.07543945 30.26367188 C2.11933017 43.37925218 2.09118551 56.48512067 1.62109375 69.59375 C1.59048355 70.59104126 1.55987335 71.58833252 1.52833557 72.61584473 C1.48990036 73.53345581 1.45146515 74.45106689 1.41186523 75.39648438 C1.38084213 76.19324585 1.34981903 76.99000732 1.31785583 77.81091309 C1 80 1 80 -1 84 C-1 76.41 -1 68.82 -1 61 C-1.66 61 -2.32 61 -3 61 C-3 54.07 -3 47.14 -3 40 C-2.01 40 -1.02 40 0 40 C0 26.8 0 13.6 0 0 Z " fill="#4583E4" transform="translate(109,8)"/>
<path d="M0 0 C4.23220617 1.28743438 7.85850283 2.89687787 11.67578125 5.125 C12.74393066 5.7449585 13.81208008 6.36491699 14.91259766 7.00366211 C16.03456543 7.66245361 17.1565332 8.32124512 18.3125 9 C19.47418072 9.67697016 20.63612919 10.35348105 21.79833984 11.02954102 C25.20315387 13.01244613 28.60193966 15.00554164 32 17 C32.9482666 17.5554248 33.8965332 18.11084961 34.87353516 18.68310547 C39.58846081 21.44514502 44.29766346 24.21658352 49 27 C48.01 27.33 47.02 27.66 46 28 C45.195625 27.505 44.39125 27.01 43.5625 26.5 C42.716875 26.005 41.87125 25.51 41 25 C40.43410156 25.21140625 39.86820313 25.4228125 39.28515625 25.640625 C35.58606618 26.22236224 32.94885295 24.09032659 29.875 22.25 C29.18792969 21.85111572 28.50085938 21.45223145 27.79296875 21.04125977 C19.44811879 16.16375489 11.21741423 11.08832941 3 6 C3.66 5.67 4.32 5.34 5 5 C5.66 5.33 6.32 5.66 7 6 C7 5.34 7 4.68 7 4 C4.03 3.505 4.03 3.505 1 3 C0.67 2.01 0.34 1.02 0 0 Z " fill="#D6D5DA" transform="translate(120,7)"/>
<path d="M0 0 C0.11145896 13.04584256 0.05736038 25.99069108 -1 39 C-1.33 39 -1.66 39 -2 39 C-2.33 36.36 -2.66 33.72 -3 31 C-3.66 31 -4.32 31 -5 31 C-5.84388104 22.83382806 -6.06162705 15.15002924 -5 7 C-6.98 7 -8.96 7 -11 7 C-11 6.34 -11 5.68 -11 5 C-9.54462432 4.16151196 -8.08559627 3.32936066 -6.625 2.5 C-5.81289062 2.0359375 -5.00078125 1.571875 -4.1640625 1.09375 C-2 0 -2 0 0 0 Z " fill="#326BD1" transform="translate(110,9)"/>
<path d="M0 0 C2.25 1.0390625 2.25 1.0390625 5 2.625 C10.25386837 5.59548304 15.58164655 8.34371393 21 11 C21.43695709 16.33087655 21.43695709 16.33087655 21 19 C18.59140121 21.02829372 17.16955691 22 14 22 C13.896875 20.906875 13.79375 19.81375 13.6875 18.6875 C13.02692273 15.14440371 12.7972908 14.06756277 10 12 C8.02 12.99 8.02 12.99 6 14 C6 11.36 6 8.72 6 6 C4.68 6.33 3.36 6.66 2 7 C2 6.34 2 5.68 2 5 C0.68 5.33 -0.64 5.66 -2 6 C-2 4.35 -2 2.7 -2 1 C-1.34 0.67 -0.68 0.34 0 0 Z " fill="#4895F5" transform="translate(82,97)"/>
<path d="M0 0 C0 2.31 0 4.62 0 7 C-3.63 7.33 -7.26 7.66 -11 8 C-10.67 8.99 -10.34 9.98 -10 11 C-14.38512875 14.31558515 -17.37458159 15.54996653 -23 16 C-23.33 17.65 -23.66 19.3 -24 21 C-27.77639718 20.48967606 -29.44722581 19.79233071 -32 17 C-24.874008 12.52185092 -17.68455251 8.17222971 -10.375 4 C-9.68857422 3.60240479 -9.00214844 3.20480957 -8.29492188 2.79516602 C-3.3514764 0 -3.3514764 0 0 0 Z " fill="#3567CC" transform="translate(56,41)"/>
<path d="M0 0 C0.66 0 1.32 0 2 0 C3.33257403 16.8929385 3.33257403 16.8929385 2 24 C7.28 24 12.56 24 18 24 C18.33 24.66 18.66 25.32 19 26 C17.13818673 27.20806978 15.25988465 28.39075297 13.375 29.5625 C11.80878906 30.55443359 11.80878906 30.55443359 10.2109375 31.56640625 C6.51038562 33.21859912 4.83000455 33.17972919 1 32 C-1 30 -1 30 -1.13525391 27.01904297 C-1.08288574 25.77268066 -1.03051758 24.52631836 -0.9765625 23.2421875 C-0.95153656 22.57913605 -0.92651062 21.91608459 -0.90072632 21.23294067 C-0.81848733 19.11310985 -0.72191635 16.99420563 -0.625 14.875 C-0.56676418 13.43884006 -0.50946081 12.00264198 -0.453125 10.56640625 C-0.31290458 7.04376398 -0.159824 3.5218134 0 0 Z " fill="#4C96F7" transform="translate(116,72)"/>
<path d="M0 0 C0.99 0.33 1.98 0.66 3 1 C3 2.98 3 4.96 3 7 C2.01 7 1.02 7 0 7 C0 6.34 0 5.68 0 5 C-5.31411494 6.92391649 -5.31411494 6.92391649 -9 11 C-9.63292383 13.11280345 -9.63292383 13.11280345 -10 15 C-8.35 15 -6.7 15 -5 15 C-5.66 15.66 -6.32 16.32 -7 17 C-6.34 17.33 -5.68 17.66 -5 18 C-5 19.32 -5 20.64 -5 22 C-8.87236814 21.31387652 -11.87258235 19.52450228 -15.25 17.5625 C-16.32765625 16.94503906 -17.4053125 16.32757813 -18.515625 15.69140625 C-19.33546875 15.13324219 -20.1553125 14.57507813 -21 14 C-21 13.34 -21 12.68 -21 12 C-10.74609375 6.140625 -10.74609375 6.140625 -8.87841797 5.08398438 C-7.59943654 4.34591867 -6.3330191 3.585743 -5.07861328 2.80664062 C-3.42843622 1.79769258 -1.71688992 0.89070168 0 0 Z " fill="#386BD0" transform="translate(45,153)"/>
<path d="M0 0 C5.66696677 -0.87184104 8.75356018 1.42569953 13.2421875 4.4921875 C14.11230469 5.23855469 14.11230469 5.23855469 15 6 C15 6.66 15 7.32 15 8 C13.73542969 7.98259766 13.73542969 7.98259766 12.4453125 7.96484375 C11.34960938 7.95582031 10.25390625 7.94679688 9.125 7.9375 C8.03445312 7.92589844 6.94390625 7.91429688 5.8203125 7.90234375 C3.04822454 7.80255697 3.04822454 7.80255697 1 9 C1.00523682 9.59014893 1.01047363 10.18029785 1.01586914 10.78833008 C1.03666047 13.46304255 1.04966701 16.13773801 1.0625 18.8125 C1.07087891 19.74126953 1.07925781 20.67003906 1.08789062 21.62695312 C1.09111328 22.51962891 1.09433594 23.41230469 1.09765625 24.33203125 C1.10289307 25.15421143 1.10812988 25.9763916 1.11352539 26.82348633 C1 29 1 29 0 32 C-0.66 32 -1.32 32 -2 32 C-2.33 22.1 -2.66 12.2 -3 2 C-2.01 2 -1.02 2 0 2 C0 1.34 0 0.68 0 0 Z " fill="#4793F4" transform="translate(118,120)"/>
<path d="M0 0 C0.33 0 0.66 0 1 0 C1.72183613 5.2814772 2.16580095 10.44551925 2.31640625 15.78125 C2.33718735 16.48020386 2.35796844 17.17915771 2.37937927 17.89929199 C2.44398535 20.09944259 2.50333909 22.29969696 2.5625 24.5 C2.60577017 26.00521842 2.64938693 27.51042693 2.69335938 29.015625 C2.79957319 32.67697744 2.90108196 36.33844234 3 40 C-0.55840951 39.20299564 -3.13764709 37.86224456 -6.25 35.9375 C-7.14203125 35.38964844 -8.0340625 34.84179688 -8.953125 34.27734375 C-9.62859375 33.85582031 -10.3040625 33.43429688 -11 33 C-8.29889598 31.64944799 -5.99210994 32 -3 32 C-3 26.72 -3 21.44 -3 16 C-2.67 16 -2.34 16 -2 16 C-2 18.64 -2 21.28 -2 24 C-1.34 24 -0.68 24 0 24 C0 16.08 0 8.16 0 0 Z " fill="#3569CC" transform="translate(108,176)"/>
<path d="M0 0 C0.66 0.33 1.32 0.66 2 1 C-2.69676905 4.57362863 -7.39637709 7.31014999 -12.7109375 9.87109375 C-15.11972054 11.01536778 -15.11972054 11.01536778 -17.75 12.6875 C-20 14 -20 14 -22.7421875 14.88671875 C-26.13274747 16.04536334 -29.18638918 17.49526558 -32.375 19.125 C-33.43460938 19.66382813 -34.49421875 20.20265625 -35.5859375 20.7578125 C-36.38257813 21.16773438 -37.17921875 21.57765625 -38 22 C-36.67282995 17.66573841 -35.27097669 16.11437627 -31.31640625 13.95703125 C-29.92518555 13.18262695 -29.92518555 13.18262695 -28.50585938 12.39257812 C-27.04889648 11.61043945 -27.04889648 11.61043945 -25.5625 10.8125 C-23.64684422 9.75703876 -21.73146746 8.70107092 -19.81640625 7.64453125 C-18.96506104 7.18409424 -18.11371582 6.72365723 -17.23657227 6.24926758 C-14.83062877 4.94380022 -14.83062877 4.94380022 -12 3 C-11.2575 3.20625 -10.515 3.4125 -9.75 3.625 C-6.57201874 4.05836108 -5.95875756 3.61746304 -3.3125 2 C-2.219375 1.34 -1.12625 0.68 0 0 Z " fill="#E9EDF7" transform="translate(182,181)"/>
<path d="M0 0 C0.33 0 0.66 0 1 0 C1.33 3.96 1.66 7.92 2 12 C2.33 12 2.66 12 3 12 C3.33 18.6 3.66 25.2 4 32 C6.31 32 8.62 32 11 32 C11 32.99 11 33.98 11 35 C9.54462432 35.83848804 8.08559627 36.67063934 6.625 37.5 C5.81289062 37.9640625 5.00078125 38.428125 4.1640625 38.90625 C2 40 2 40 0 40 C0 26.8 0 13.6 0 0 Z " fill="#2965D0" transform="translate(115,176)"/>
<path d="M0 0 C1.58294782 -0.05437607 3.16644256 -0.09296271 4.75 -0.125 C5.63171875 -0.14820312 6.5134375 -0.17140625 7.421875 -0.1953125 C10.1135858 0.00860498 11.69904974 0.63448279 14 2 C14.33 1.34 14.66 0.68 15 0 C15.66 0.66 16.32 1.32 17 2 C17.66 2 18.32 2 19 2 C19.33 3.98 19.66 5.96 20 8 C22.97 8.495 22.97 8.495 26 9 C27.125 13.75 27.125 13.75 26 16 C22.60006631 14.09054048 19.20582679 12.17117251 15.8125 10.25 C14.85279297 9.71117188 13.89308594 9.17234375 12.90429688 8.6171875 C8.32567437 6.01893805 3.96776588 3.50047011 0 0 Z " fill="#4385E7" transform="translate(61,80)"/>
<path d="M0 0 C0.495 1.98 0.495 1.98 1 4 C-2.91359225 6.24341683 -6.82800126 8.48539939 -10.74316406 10.72607422 C-12.07411718 11.48805297 -13.40484881 12.25041873 -14.73535156 13.01318359 C-16.65110692 14.11137818 -18.5676623 15.20816485 -20.484375 16.3046875 C-21.07619568 16.6443454 -21.66801636 16.9840033 -22.277771 17.33395386 C-30.44280138 22 -30.44280138 22 -34 22 C-32.8663651 18.5990953 -32.54083532 18.45317325 -29.54296875 16.87890625 C-28.84236328 16.50056641 -28.14175781 16.12222656 -27.41992188 15.73242188 C-26.68322266 15.34634766 -25.94652344 14.96027344 -25.1875 14.5625 C-20.4989807 12.09112938 -16.66001154 9.90916726 -13 6 C-11.01363702 5.29373761 -9.01151741 4.63106429 -7 4 C-4.60330737 2.75584165 -2.31749543 1.39049726 0 0 Z " fill="#ECF0F4" transform="translate(95,13)"/>
<path d="M0 0 C0 1.98 0 3.96 0 6 C-0.99 6 -1.98 6 -3 6 C-3 5.34 -3 4.68 -3 4 C-3.66 4 -4.32 4 -5 4 C-5 4.66 -5 5.32 -5 6 C-5.99 6 -6.98 6 -8 6 C-8 7.98 -8 9.96 -8 12 C-8.99 12 -9.98 12 -11 12 C-11 12.66 -11 13.32 -11 14 C-14.63 14 -18.26 14 -22 14 C-21 10 -21 10 -19.3894043 8.62792969 C-18.70789307 8.22993164 -18.02638184 7.83193359 -17.32421875 7.421875 C-16.57849609 6.98359375 -15.83277344 6.5453125 -15.06445312 6.09375 C-14.28005859 5.6503125 -13.49566406 5.206875 -12.6875 4.75 C-11.91470703 4.29109375 -11.14191406 3.8321875 -10.34570312 3.359375 C-4.53178478 0 -4.53178478 0 0 0 Z " fill="#3669D0" transform="translate(96,18)"/>
<path d="M0 0 C2.046875 3.71875 2.046875 3.71875 1.625 6.25 C1.41875 6.8275 1.2125 7.405 1 8 C-0.051875 8.0825 -1.10375 8.165 -2.1875 8.25 C-6.36157748 9.07113 -7.85157984 10.26584565 -11 13 C-13.77472875 14.42120253 -15.22179198 15.1261959 -18.3125 14.625 C-18.869375 14.41875 -19.42625 14.2125 -20 14 C-18.79242564 10.37727692 -17.98145951 10.12201363 -14.74609375 8.30078125 C-13.89208984 7.81416016 -13.03808594 7.32753906 -12.15820312 6.82617188 C-11.26037109 6.32666016 -10.36253906 5.82714844 -9.4375 5.3125 C-8.08495117 4.54583008 -8.08495117 4.54583008 -6.70507812 3.76367188 C-4.47453031 2.50087496 -2.23952642 1.24678254 0 0 Z " fill="#4689EB" transform="translate(158,88)"/>
<path d="M0 0 C0.66 0.33 1.32 0.66 2 1 C1.67 1.66 1.34 2.32 1 3 C1.66 3 2.32 3 3 3 C2.67 3.99 2.34 4.98 2 6 C0.02 6.33 -1.96 6.66 -4 7 C-4.33 8.65 -4.66 10.3 -5 12 C-5.99 12 -6.98 12 -8 12 C-7.67 12.66 -7.34 13.32 -7 14 C-13.93 13.505 -13.93 13.505 -21 13 C-16.6722962 9.53783696 -12.59521399 6.87534198 -7.8125 4.1875 C-7.08869141 3.76791016 -6.36488281 3.34832031 -5.61914062 2.91601562 C-3.78160148 1.87844701 -1.89371629 0.93109469 0 0 Z M3 0 C3.66 0 4.32 0 5 0 C4.67 0.99 4.34 1.98 4 3 C3.67 2.01 3.34 1.02 3 0 Z " fill="#4086EA" transform="translate(85,130)"/>
<path d="M0 0 C-0.33 1.32 -0.66 2.64 -1 4 C0.65 4 2.3 4 4 4 C4 4.99 4 5.98 4 7 C7.72430357 7.69289369 11.21083746 8.11144596 15 8 C15 10.31 15 12.62 15 15 C10.41760015 14.41741786 6.86443458 12.48202911 2.9375 10.1875 C2.02000977 9.67219727 2.02000977 9.67219727 1.08398438 9.14648438 C-2.42874634 7.12239197 -5.28493571 5.01297659 -8 2 C-4.77208445 -0.1519437 -3.71599191 -0.20086443 0 0 Z " fill="#3166CC" transform="translate(81,192)"/>
<path d="M0 0 C2.81758218 1.18635039 4.38032793 2.70982096 6.375 5 C5.488125 4.649375 4.60125 4.29875 3.6875 3.9375 C0.25386099 2.96571538 -1.3016524 2.83233733 -4.625 4 C-6.41885992 5.4579186 -6.41885992 5.4579186 -7.625 7 C-6.965 7.33 -6.305 7.66 -5.625 8 C-7.24670379 9.00533667 -8.87247237 10.00411907 -10.5 11 C-11.40492187 11.556875 -12.30984375 12.11375 -13.2421875 12.6875 C-15.625 14 -15.625 14 -17.625 14 C-17.955 13.34 -18.285 12.68 -18.625 12 C-19.16769531 12.3609375 -19.71039063 12.721875 -20.26953125 13.09375 C-20.98496094 13.5578125 -21.70039062 14.021875 -22.4375 14.5 C-23.14519531 14.9640625 -23.85289063 15.428125 -24.58203125 15.90625 C-26.625 17 -26.625 17 -29.625 17 C-29.625 16.34 -29.625 15.68 -29.625 15 C-28.00250059 14.16180842 -26.37691503 13.3295884 -24.75 12.5 C-23.84507813 12.0359375 -22.94015625 11.571875 -22.0078125 11.09375 C-19.625 10 -19.625 10 -17.625 10 C-17.295 9.01 -16.965 8.02 -16.625 7 C-14.68013872 6.24183374 -12.72994193 5.49319043 -10.75 4.83203125 C-8.33022105 3.98225578 -8.33022105 3.98225578 -5.4375 1.75 C-2.625 0 -2.625 0 0 0 Z " fill="#D8DBDF" transform="translate(113.625,2)"/>
<path d="M0 0 C3.48710894 0.65229035 5.96791438 2.05826544 8.95703125 3.94140625 C9.90513672 4.52470703 10.85324219 5.10800781 11.83007812 5.70898438 C13.81167343 6.94050628 15.78830305 8.18005594 17.75976562 9.42773438 C23.23155713 12.77304767 26.59551458 14.59518124 33 14 C35.9375 16 35.9375 16 38 18 C37.67 18.66 37.34 19.32 37 20 C39.64 21.65 42.28 23.3 45 25 C44.01 25.495 44.01 25.495 43 26 C40.45197048 24.58574028 38.01436614 23.12864968 35.5625 21.5625 C34.21347934 20.70356821 32.86074435 19.85043502 31.50390625 19.00390625 C30.90392822 18.62049072 30.3039502 18.2370752 29.68579102 17.84204102 C27.86676069 16.7765746 27.86676069 16.7765746 25 17 C23.9823051 16.0180137 22.98601601 15.01379111 22 14 C20.15296349 12.82965555 18.27380836 11.70933242 16.375 10.625 C14.78365234 9.71041016 14.78365234 9.71041016 13.16015625 8.77734375 C9.6792304 6.81959188 6.17627131 4.90747296 2.64453125 3.04296875 C1 2 1 2 0 0 Z " fill="#D1D4D8" transform="translate(55,189)"/>
<path d="M0 0 C3.555782 1.34211975 6.79105167 2.92244697 10.08203125 4.8203125 C11.01337891 5.35527344 11.94472656 5.89023437 12.90429688 6.44140625 C13.86400391 6.99699219 14.82371094 7.55257813 15.8125 8.125 C16.79154297 8.68832031 17.77058594 9.25164063 18.77929688 9.83203125 C21.18789555 11.21844415 23.59471395 12.60785055 26 14 C25.01 14.33 24.02 14.66 23 15 C22.195625 14.505 21.39125 14.01 20.5625 13.5 C19.716875 13.005 18.87125 12.51 18 12 C17.03755371 12.25221313 17.03755371 12.25221313 16.05566406 12.50952148 C13.01405939 13.23524403 11.25124644 11.76220819 8.671875 10.24414062 C8.03765625 9.85419922 7.4034375 9.46425781 6.75 9.0625 C5.77546875 8.48338867 5.77546875 8.48338867 4.78125 7.89257812 C3.18087871 6.93941582 1.5895258 5.97114076 0 5 C0 3.33333333 0 1.66666667 0 0 Z " fill="#CBCFD1" transform="translate(143,20)"/>
<path d="M0 0 C0.66 0 1.32 0 2 0 C2.0578304 4.45827926 2.09353855 8.9164628 2.125 13.375 C2.14175781 14.64601563 2.15851563 15.91703125 2.17578125 17.2265625 C2.18222656 18.43828125 2.18867187 19.65 2.1953125 20.8984375 C2.20578613 22.01911621 2.21625977 23.13979492 2.22705078 24.29443359 C2 27 2 27 0 29 C-1.32 28.34 -2.64 27.68 -4 27 C-3.34 27 -2.68 27 -2 27 C-1.97494385 26.2886792 -1.9498877 25.5773584 -1.92407227 24.84448242 C-1.80811561 21.62530483 -1.68538755 18.40642015 -1.5625 15.1875 C-1.50352539 13.50817383 -1.50352539 13.50817383 -1.44335938 11.79492188 C-1.40146484 10.72177734 -1.35957031 9.64863281 -1.31640625 8.54296875 C-1.27974854 7.55321045 -1.24309082 6.56345215 -1.20532227 5.54370117 C-1 3 -1 3 0 0 Z " fill="#448EF6" transform="translate(106,69)"/>
<path d="M0 0 C3.79049707 1.42749981 7.27122456 3.16236542 10.8125 5.125 C12.27623047 5.93324219 12.27623047 5.93324219 13.76953125 6.7578125 C14.50558594 7.16773438 15.24164063 7.57765625 16 8 C13.99020941 11.01468588 13.29263985 11.83789182 10 13 C7.75 12.625 7.75 12.625 6 12 C6 10.02 6 8.04 6 6 C3.69 5.67 1.38 5.34 -1 5 C-1 1 -1 1 0 0 Z " fill="#3565CA" transform="translate(186,50)"/>
<path d="M0 0 C0 0.66 0 1.32 0 2 C-3.66575271 4.11865761 -7.33194053 6.23655968 -10.99853516 8.35375977 C-12.24605126 9.07425469 -13.4934478 9.79495668 -14.74072266 10.51586914 C-16.53256408 11.55148791 -18.32483284 12.58636357 -20.1171875 13.62109375 C-21.19597168 14.2442749 -22.27475586 14.86745605 -23.38623047 15.50952148 C-24.9044145 16.37525224 -26.43683078 17.21841539 -28 18 C-27.78662109 15.69238281 -27.78662109 15.69238281 -27 13 C-25.00634766 11.34667969 -25.00634766 11.34667969 -22.4140625 9.921875 C-21.48335937 9.40109375 -20.55265625 8.8803125 -19.59375 8.34375 C-18.6140625 7.8178125 -17.634375 7.291875 -16.625 6.75 C-15.16707031 5.93789063 -15.16707031 5.93789063 -13.6796875 5.109375 C-4.43171875 0 -4.43171875 0 0 0 Z " fill="#ECF1F6" transform="translate(51,41)"/>
<path d="M0 0 C0.66 0.33 1.32 0.66 2 1 C1.23538452 1.43868408 1.23538452 1.43868408 0.45532227 1.88623047 C-1.8454816 3.21035478 -4.14150678 4.54255309 -6.4375 5.875 C-7.64116211 6.56529297 -7.64116211 6.56529297 -8.86914062 7.26953125 C-9.63291016 7.71425781 -10.39667969 8.15898437 -11.18359375 8.6171875 C-12.24404907 9.22989502 -12.24404907 9.22989502 -13.32592773 9.85498047 C-15.156435 10.90804949 -15.156435 10.90804949 -16 13 C-15.34 13.33 -14.68 13.66 -14 14 C-15.5506316 15.03877263 -17.11609681 16.05542555 -18.6875 17.0625 C-19.55761719 17.63097656 -20.42773438 18.19945313 -21.32421875 18.78515625 C-24.42822437 20.19442012 -25.8040576 20.00772958 -29 19 C-27.71311663 15.13934988 -26.44495903 14.82935806 -22.9375 12.875 C-21.86628906 12.27429687 -20.79507813 11.67359375 -19.69140625 11.0546875 C-19.10375488 10.72952148 -18.51610352 10.40435547 -17.91064453 10.06933594 C-15.83122538 8.90554142 -13.77278132 7.7091583 -11.71484375 6.5078125 C-10.26842842 5.67153028 -8.82181593 4.83558897 -7.375 4 C-6.67624756 3.58991699 -5.97749512 3.17983398 -5.25756836 2.75732422 C-3.53884458 1.77646524 -1.77252433 0.87991661 0 0 Z " fill="#D0D2D6" transform="translate(77,22)"/>
<path d="M0 0 C0.309375 0.928125 0.309375 0.928125 0.625 1.875 C1.84723792 4.25036584 1.84723792 4.25036584 4.59765625 4.859375 C8.68746726 6.23047123 12.12264616 8.17188727 15.8125 10.375 C16.8324707 10.95507812 16.8324707 10.95507812 17.87304688 11.546875 C22.83578908 14.49582251 22.83578908 14.49582251 23.69799805 17.14306641 C23.79765869 17.75585449 23.89731934 18.36864258 24 19 C20.444218 17.65788025 17.20894833 16.07755303 13.91796875 14.1796875 C12.98662109 13.64472656 12.05527344 13.10976562 11.09570312 12.55859375 C10.13599609 12.00300781 9.17628906 11.44742188 8.1875 10.875 C7.20845703 10.31167969 6.22941406 9.74835938 5.22070312 9.16796875 C2.81210445 7.78155585 0.40528605 6.39214945 -2 5 C-1.34 4.67 -0.68 4.34 0 4 C0 2.68 0 1.36 0 0 Z " fill="#EFF2F5" transform="translate(21,163)"/>
<path d="M0 0 C5.75 1.625 5.75 1.625 8 5 C6.30327274 6.18348236 4.59202308 7.34616049 2.875 8.5 C1.92367187 9.1496875 0.97234375 9.799375 -0.0078125 10.46875 C-3.31017823 12.15873351 -5.34474108 12.30370104 -9 12 C-9 10.02 -9 8.04 -9 6 C-6.69 6.33 -4.38 6.66 -2 7 C-1.34 4.69 -0.68 2.38 0 0 Z " fill="#3666CC" transform="translate(193,162)"/>
<path d="M0 0 C1.98 0.66 3.96 1.32 6 2 C5.343621 6.48525648 4.29925791 10.66914029 3 15 C2.67 15 2.34 15 2 15 C1.67 22.92 1.34 30.84 1 39 C0.67 39 0.34 39 0 39 C0 26.13 0 13.26 0 0 Z " fill="#1A60D1" transform="translate(115,9)"/>
<path d="M0 0 C0.66 0.33 1.32 0.66 2 1 C2.33 1.99 2.66 2.98 3 4 C-2.28 6.97 -7.56 9.94 -13 13 C-14.32 12.01 -15.64 11.02 -17 10 C-14.21605957 8.29949343 -11.42172475 6.61688375 -8.625 4.9375 C-7.8309375 4.45216797 -7.036875 3.96683594 -6.21875 3.46679688 C-5.45820313 3.01240234 -4.69765625 2.55800781 -3.9140625 2.08984375 C-2.8614624 1.45357056 -2.8614624 1.45357056 -1.78759766 0.80444336 C-0.90273682 0.4062439 -0.90273682 0.4062439 0 0 Z " fill="#DFEAF7" transform="translate(185,68)"/>
<path d="M0 0 C3.85934339 0.66957283 6.73650536 2.48874178 10.0625 4.5 C14.36864736 7.10142441 14.36864736 7.10142441 19 9 C19 9.66 19 10.32 19 11 C19.66 11 20.32 11 21 11 C21.33 11.99 21.66 12.98 22 14 C16.72008992 13.47095089 12.6577479 10.77042751 8.1875 8.125 C7.39923828 7.67769531 6.61097656 7.23039063 5.79882812 6.76953125 C5.05439453 6.33253906 4.30996094 5.89554688 3.54296875 5.4453125 C2.86258545 5.04844238 2.18220215 4.65157227 1.48120117 4.24267578 C0.99240479 3.83259277 0.5036084 3.42250977 0 3 C0 2.01 0 1.02 0 0 Z " fill="#EEF0F5" transform="translate(92,207)"/>
<path d="M0 0 C4.95 0 9.9 0 15 0 C15 0.66 15 1.32 15 2 C13.23628182 3.03307771 11.46374967 4.05112049 9.6875 5.0625 C8.20830078 5.91521484 8.20830078 5.91521484 6.69921875 6.78515625 C4 8 4 8 1 7 C0.67 6.67 0.34 6.34 0 6 C0 4.02 0 2.04 0 0 Z " fill="#356BD2" transform="translate(176,64)"/>
<path d="M0 0 C4.14298667 0.59834725 7.18194377 2.00664285 10.8125 4.0625 C11.78832031 4.61035156 12.76414062 5.15820312 13.76953125 5.72265625 C14.50558594 6.14417969 15.24164063 6.56570312 16 7 C15.67 7.66 15.34 8.32 15 9 C10.71 9 6.42 9 2 9 C2.04125 7.88625 2.0825 6.7725 2.125 5.625 C2.41121859 1.95633975 2.41121859 1.95633975 0 0 Z " fill="#3D81E5" transform="translate(62,87)"/>
<path d="M0 0 C5.80342274 1.48805711 10.17590879 4.59097555 15 8 C10.38826663 9.28223428 5.75692115 9.56186253 1 10 C0.67 6.7 0.34 3.4 0 0 Z " fill="#3668D1" transform="translate(22,63)"/>
<path d="M0 0 C4.5688871 1.2691353 8.31612528 3.53464617 12.375 5.9375 C13.035 6.2675 13.695 6.5975 14.375 6.9375 C14.375 7.5975 14.375 8.2575 14.375 8.9375 C9.87433525 7.86954565 5.6255466 6.79711414 1.375 4.9375 C1.045 5.5975 0.715 6.2575 0.375 6.9375 C-0.285 6.9375 -0.945 6.9375 -1.625 6.9375 C-1.625 5.9475 -1.625 4.9575 -1.625 3.9375 C-3.275 4.2675 -4.925 4.5975 -6.625 4.9375 C-5.35430652 1.12541955 -4.09852887 -0.09758402 0 0 Z " fill="#F4F6F7" transform="translate(112.625,4.0625)"/>
<path d="M0 0 C0.99 0 1.98 0 3 0 C3 0.66 3 1.32 3 2 C3.721875 1.67 4.44375 1.34 5.1875 1 C8.01697427 -0.00603529 10.02895466 -0.16977402 13 0 C11.53403275 3.9429464 9.62691725 5.01834588 5.875 6.75 C4.50988281 7.39195312 4.50988281 7.39195312 3.1171875 8.046875 C2.41851563 8.36140625 1.71984375 8.6759375 1 9 C0 8 0 8 -0.09765625 6.15234375 C-0.06510417 4.1015625 -0.03255208 2.05078125 0 0 Z " fill="#3668D2" transform="translate(23,152)"/>
<path d="M0 0 C4.29 0 8.58 0 13 0 C13 3.3 13 6.6 13 10 C11.01729088 9.04901734 9.03891621 8.08899297 7.0625 7.125 C5.96035156 6.59132812 4.85820313 6.05765625 3.72265625 5.5078125 C1 4 1 4 0 2 C1.98 2.66 3.96 3.32 6 4 C4.02 3.01 2.04 2.02 0 1 C0 0.67 0 0.34 0 0 Z " fill="#3369CB" transform="translate(59,184)"/>
<path d="M0 0 C0.33 0.33 0.66 0.66 1 1 C1.99 0.67 2.98 0.34 4 0 C6.1875 0.4375 6.1875 0.4375 8 1 C8 3.31 8 5.62 8 8 C7.01 8.495 7.01 8.495 6 9 C3.65234375 7.85546875 3.65234375 7.85546875 0.9375 6.1875 C0.03902344 5.64480469 -0.85945312 5.10210937 -1.78515625 4.54296875 C-4 3 -4 3 -5 1 C-2 0 -2 0 0 0 Z " fill="#3D85ED" transform="translate(152,128)"/>
<path d="M0 0 C0.66 0.33 1.32 0.66 2 1 C-2.69144359 4.56957664 -7.38291653 7.30813316 -12.6953125 9.859375 C-15.16500813 11.03438732 -15.16500813 11.03438732 -18 12.875 C-18.99 13.431875 -18.99 13.431875 -20 14 C-20.66 13.67 -21.32 13.34 -22 13 C-19.69 11.35 -17.38 9.7 -15 8 C-15.66 7.34 -16.32 6.68 -17 6 C-14.8125 4.4375 -14.8125 4.4375 -12 3 C-11.21625 3.185625 -10.4325 3.37125 -9.625 3.5625 C-6.51449272 4.08091788 -5.92213739 3.59387791 -3.3125 2 C-2.219375 1.34 -1.12625 0.68 0 0 Z " fill="#D4D7DD" transform="translate(182,181)"/>
<path d="M0 0 C1.62463842 -0.05395478 3.24978541 -0.09277195 4.875 -0.125 C6.23238281 -0.15980469 6.23238281 -0.15980469 7.6171875 -0.1953125 C10 0 10 0 12 2 C10.44333045 2.9884096 8.87937574 3.96535082 7.3125 4.9375 C6.44238281 5.48277344 5.57226562 6.02804688 4.67578125 6.58984375 C2.05375311 7.97167172 -0.08310075 8.58480173 -3 9 C-2.34 8.67 -1.68 8.34 -1 8 C-0.16666667 6.08333333 -0.16666667 6.08333333 0 4 C-0.66 3.34 -1.32 2.68 -2 2 C-1.34 2 -0.68 2 0 2 C0 1.34 0 0.68 0 0 Z " fill="#3466C7" transform="translate(156,184)"/>
<path d="M0 0 C4.8274799 1.41292095 8.7162359 3.42974154 13 6 C13.33 5.01 13.66 4.02 14 3 C19.82300885 6.46902655 19.82300885 6.46902655 20.6875 9.0625 C20.790625 9.701875 20.89375 10.34125 21 11 C22.47890069 12.73026102 22.47890069 12.73026102 24 14 C18.53520151 12.46602148 14.0218192 9.88493047 9.1875 7 C8.41212891 6.54882812 7.63675781 6.09765625 6.83789062 5.6328125 C1.12788238 2.25576475 1.12788238 2.25576475 0 0 Z " fill="#CBCED2" transform="translate(31,175)"/>
<path d="M0 0 C0 3 0 3 -1 5 C-0.01 5.33 0.98 5.66 2 6 C2 6.99 2 7.98 2 9 C1.195625 8.814375 0.39125 8.62875 -0.4375 8.4375 C-1.283125 8.293125 -2.12875 8.14875 -3 8 C-3.33 8.33 -3.66 8.66 -4 9 C-5.51928038 9.07179964 -7.04167482 9.08392007 -8.5625 9.0625 C-9.38878906 9.05347656 -10.21507812 9.04445313 -11.06640625 9.03515625 C-11.70449219 9.02355469 -12.34257813 9.01195312 -13 9 C-9.39299028 4.76568424 -4.85413839 2.5307901 0 0 Z " fill="#3B6DD0" transform="translate(70,31)"/>
<path d="M0 0 C1.98 0.66 3.96 1.32 6 2 C6 1.34 6 0.68 6 0 C7.65 0.33 9.3 0.66 11 1 C11 1.99 11 2.98 11 4 C9.54462432 4.83848804 8.08559627 5.67063934 6.625 6.5 C5.40683594 7.19609375 5.40683594 7.19609375 4.1640625 7.90625 C2 9 2 9 0 9 C0 6 0 3 0 0 Z " fill="#3365CA" transform="translate(168,176)"/>
<path d="M0 0 C1.63001953 0.01353516 1.63001953 0.01353516 3.29296875 0.02734375 C4.12441406 0.03894531 4.95585938 0.05054687 5.8125 0.0625 C2.88346942 2.39614352 -0.07318203 4.11210836 -3.4375 5.75 C-4.77554688 6.40548828 -4.77554688 6.40548828 -6.140625 7.07421875 C-6.81609375 7.40035156 -7.4915625 7.72648437 -8.1875 8.0625 C-9.1875 5.0625 -9.1875 5.0625 -9.1875 1.0625 C-5.90230525 -0.03256492 -3.45086585 -0.03710608 0 0 Z " fill="#468EF1" transform="translate(89.1875,119.9375)"/>
<path d="M0 0 C1.4540625 0.0309375 1.4540625 0.0309375 2.9375 0.0625 C2.9375 0.7225 2.9375 1.3825 2.9375 2.0625 C1.38174022 2.90834998 -0.1824612 3.73868399 -1.75 4.5625 C-3.05517578 5.25859375 -3.05517578 5.25859375 -4.38671875 5.96875 C-7.18038829 7.11068792 -9.07879113 7.27754208 -12.0625 7.0625 C-12.0625 5.0825 -12.0625 3.1025 -12.0625 1.0625 C-10.763125 1.083125 -9.46375 1.10375 -8.125 1.125 C-6.77084367 1.14649454 -5.41493917 1.13398199 -4.0625 1.0625 C-3.0625 0.0625 -3.0625 0.0625 0 0 Z " fill="#4286EA" transform="translate(76.0625,127.9375)"/>
<path d="M0 0 C-3.35583515 3.915141 -7.28066362 6.0795774 -12 8 C-12.66 8 -13.32 8 -14 8 C-14 6.02 -14 4.04 -14 2 C-9.07262981 0.02905192 -5.21979128 -0.1799928 0 0 Z " fill="#3566CE" transform="translate(142,200)"/>
<path d="M0 0 C3.34147603 1.08792243 5.84911441 2.82872202 8.6875 4.875 C5.69269083 5.7473412 3.05174089 5.98329766 -0.0625 5.9375 C-0.86171875 5.92847656 -1.6609375 5.91945313 -2.484375 5.91015625 C-3.08765625 5.89855469 -3.6909375 5.88695312 -4.3125 5.875 C-4.6425 4.555 -4.9725 3.235 -5.3125 1.875 C-2.3125 -0.125 -2.3125 -0.125 0 0 Z " fill="#346AD3" transform="translate(173.3125,42.125)"/>
<path d="M0 0 C0 0.66 0 1.32 0 2 C-0.825 2.38929687 -1.65 2.77859375 -2.5 3.1796875 C-12.09711346 7.82828933 -21.04493079 13.21990987 -30 19 C-30 18.01 -30 17.02 -30 16 C-29.06800781 15.46890625 -28.13601562 14.9378125 -27.17578125 14.390625 C-24.04125768 12.60037079 -20.91616982 10.79430258 -17.79296875 8.984375 C-15.92452359 7.90617301 -14.05603315 6.82804949 -12.1875 5.75 C-11.23423828 5.19570313 -10.28097656 4.64140625 -9.29882812 4.0703125 C-8.38939453 3.54695313 -7.47996094 3.02359375 -6.54296875 2.484375 C-5.71821045 2.00709961 -4.89345215 1.52982422 -4.04370117 1.03808594 C-2 0 -2 0 0 0 Z " fill="#BDBABF" transform="translate(48,40)"/>
<path d="M0 0 C4.43090471 1.20842856 6.98112756 2.51668565 10 6 C9.01 6.495 9.01 6.495 8 7 C8 6.34 8 5.68 8 5 C7.29875 5.33 6.5975 5.66 5.875 6 C2.73996884 7.09044562 0.29436818 7.15322643 -3 7 C-3 5.35 -3 3.7 -3 2 C-2.01 2 -1.02 2 0 2 C0 1.34 0 0.68 0 0 Z " fill="#3F86EC" transform="translate(147,137)"/>
<path d="M0 0 C2.64 0 5.28 0 8 0 C8 0.66 8 1.32 8 2 C8.66 2.33 9.32 2.66 10 3 C8.54735962 3.8638129 7.0876837 4.71580454 5.625 5.5625 C4.40683594 6.27599609 4.40683594 6.27599609 3.1640625 7.00390625 C2.44992188 7.33261719 1.73578125 7.66132812 1 8 C0.34 7.67 -0.32 7.34 -1 7 C-1 3 -1 3 0 0 Z " fill="#4588EB" transform="translate(137,88)"/>
<path d="M0 0 C0.99 0.66 1.98 1.32 3 2 C5.67145537 1.19838209 5.67145537 1.19838209 8 0 C5.0761589 3.18019683 2.16598831 5.25351309 -1.625 7.3125 C-3.06746094 8.11107422 -3.06746094 8.11107422 -4.5390625 8.92578125 C-5.35117187 9.28027344 -6.16328125 9.63476562 -7 10 C-7.66 9.67 -8.32 9.34 -9 9 C-8.67 8.01 -8.34 7.02 -8 6 C-7.34 5.67 -6.68 5.34 -6 5 C-6 4.34 -6 3.68 -6 3 C-5.34 3 -4.68 3 -4 3 C-3.67 3.33 -3.34 3.66 -3 4 C-2.34 3.67 -1.68 3.34 -1 3 C-0.67 2.01 -0.34 1.02 0 0 Z " fill="#3970D3" transform="translate(49,141)"/>
<path d="M0 0 C3.67702016 0.67513752 6.43710889 2.26871855 9.640625 4.16015625 C10.71054688 4.78857422 11.78046875 5.41699219 12.8828125 6.06445312 C14.54957031 7.05348633 14.54957031 7.05348633 16.25 8.0625 C17.37664062 8.72572266 18.50328125 9.38894531 19.6640625 10.07226562 C22.44536723 11.71040697 25.22385752 13.35313045 28 15 C27.01 15.66 26.02 16.32 25 17 C24.62101562 16.57460937 24.24203125 16.14921875 23.8515625 15.7109375 C21.54744099 13.58181256 19.09917682 12.18066687 16.375 10.625 C14.78365234 9.71041016 14.78365234 9.71041016 13.16015625 8.77734375 C9.6792304 6.81959188 6.17627131 4.90747296 2.64453125 3.04296875 C1 2 1 2 0 0 Z " fill="#B9B9B8" transform="translate(55,189)"/>
<path d="M0 0 C3.63 1.98 7.26 3.96 11 6 C11 6.99 11 7.98 11 9 C3.375 8.125 3.375 8.125 0 7 C0 4.69 0 2.38 0 0 Z " fill="#458BF0" transform="translate(136,128)"/>
<path d="M0 0 C2.64 0 5.28 0 8 0 C8.33 2.31 8.66 4.62 9 7 C5.625 6.6875 5.625 6.6875 2 6 C0 3 0 3 0 0 Z " fill="#3467CD" transform="translate(47,176)"/>
<path d="M0 0 C0.66 0.99 1.32 1.98 2 3 C5.06556598 3.73343428 5.06556598 3.73343428 8 4 C9.125 8.75 9.125 8.75 8 11 C4.7 9.02 1.4 7.04 -2 5 C-1.34 4.67 -0.68 4.34 0 4 C0 2.68 0 1.36 0 0 Z " fill="#468BEF" transform="translate(79,85)"/>
<path d="M0 0 C0.66 0 1.32 0 2 0 C3.33257403 16.8929385 3.33257403 16.8929385 2 24 C1.67 24 1.34 24 1 24 C-0.32915021 16.02509872 -0.08801359 8.05813281 0 0 Z " fill="#4590EF" transform="translate(116,72)"/>
<path d="M0 0 C0.66 0 1.32 0 2 0 C2 3.3 2 6.6 2 10 C2.66 10 3.32 10 4 10 C3.67 12.97 3.34 15.94 3 19 C2.67 18.01 2.34 17.02 2 16 C1.34 16 0.68 16 0 16 C0 10.72 0 5.44 0 0 Z " fill="#4084E7" transform="translate(116,56)"/>
<path d="M0 0 C0.33 1.32 0.66 2.64 1 4 C-8.22551253 9.74031891 -8.22551253 9.74031891 -14 9 C-11.48367951 6.14015453 -8.66114447 4.58531178 -5.3125 2.8125 C-4.31863281 2.28269531 -3.32476562 1.75289062 -2.30078125 1.20703125 C-1.54152344 0.80871094 -0.78226563 0.41039062 0 0 Z " fill="#EFF1F7" transform="translate(95,13)"/>
<path d="M0 0 C1.134375 0.020625 2.26875 0.04125 3.4375 0.0625 C3.25 1.875 3.25 1.875 2.4375 4.0625 C-1.74107143 7.0625 -1.74107143 7.0625 -4.5625 7.0625 C-4.60504356 5.06295254 -4.60330783 3.06208364 -4.5625 1.0625 C-3.5625 0.0625 -3.5625 0.0625 0 0 Z " fill="#3368CE" transform="translate(148.5625,191.9375)"/>
<path d="M0 0 C2.1640625 0.99609375 2.1640625 0.99609375 4.625 2.4375 C5.85089844 3.14712891 5.85089844 3.14712891 7.1015625 3.87109375 C7.72804688 4.24363281 8.35453125 4.61617188 9 5 C9 5.33 9 5.66 9 6 C6.69 6.33 4.38 6.66 2 7 C2 6.34 2 5.68 2 5 C0.68 5.33 -0.64 5.66 -2 6 C-2 4.35 -2 2.7 -2 1 C-1.34 0.67 -0.68 0.34 0 0 Z " fill="#468CF2" transform="translate(82,97)"/>
<path d="M0 0 C5.96652354 1.57013777 10.82909025 4.75029782 16 8 C13.50907189 9.24546405 12.58919267 8.7767578 10 8 C10.33 8.66 10.66 9.32 11 10 C7.62496331 8.8141763 5.35277269 7.72426311 3 5 C4.32 5.33 5.64 5.66 7 6 C7 5.34 7 4.68 7 4 C4.03 3.505 4.03 3.505 1 3 C0.67 2.01 0.34 1.02 0 0 Z " fill="#CACED2" transform="translate(120,7)"/>
<path d="M0 0 C0.33 0 0.66 0 1 0 C1 2.64 1 5.28 1 8 C2.32 8.33 3.64 8.66 5 9 C5.33 10.65 5.66 12.3 6 14 C3.33333333 12.66666667 0.66666667 11.33333333 -2 10 C-1.34 6.7 -0.68 3.4 0 0 Z " fill="#DFECF9" transform="translate(122,109)"/>
<path d="M0 0 C-4.75 3 -4.75 3 -7 3 C-7 3.66 -7 4.32 -7 5 C-8.58074564 5.81752303 -10.16471223 6.62881997 -11.75 7.4375 C-12.63171875 7.88996094 -13.5134375 8.34242187 -14.421875 8.80859375 C-16.64198566 9.83455398 -18.61444619 10.51508603 -21 11 C-21 10.34 -21 9.68 -21 9 C-19.37750059 8.16180842 -17.75191503 7.3295884 -16.125 6.5 C-14.76761719 5.80390625 -14.76761719 5.80390625 -13.3828125 5.09375 C-11 4 -11 4 -9 4 C-8.67 3.01 -8.34 2.02 -8 1 C-2.59770115 -1.29885057 -2.59770115 -1.29885057 0 0 Z " fill="#BDC0BC" transform="translate(105,8)"/>
<path d="M0 0 C7.5273523 2.97592998 7.5273523 2.97592998 9.5 7.25 C9.665 8.1575 9.83 9.065 10 10 C6.07260319 8.69086773 3.64361016 7.21009805 1 4 C0.62243192 2.67851173 0.28143207 1.34524529 0 0 Z " fill="#E1E8F9" transform="translate(176,147)"/>
<path d="M0 0 C2.5 0.8125 2.5 0.8125 5 2 C5.99 2.33 6.98 2.66 8 3 C8 3.66 8 4.32 8 5 C5.1875 5.625 5.1875 5.625 2 6 C1.01 5.34 0.02 4.68 -1 4 C-1.33 4.33 -1.66 4.66 -2 5 C-2.33 4.01 -2.66 3.02 -3 2 C-2.01 1.34 -1.02 0.68 0 0 Z " fill="#336CD2" transform="translate(179,154)"/>
<path d="M0 0 C0.33 0 0.66 0 1 0 C1 2.64 1 5.28 1 8 C1.66 8 2.32 8 3 8 C3 10.97 3 13.94 3 17 C2.01 17 1.02 17 0 17 C0 11.39 0 5.78 0 0 Z " fill="#306BD0" transform="translate(105,192)"/>
<path d="M0 0 C0.66 0.66 1.32 1.32 2 2 C-0.95105384 3.7004792 -3.91190122 5.38311093 -6.875 7.0625 C-7.71675781 7.54783203 -8.55851563 8.03316406 -9.42578125 8.53320312 C-10.23144531 8.98759766 -11.03710938 9.44199219 -11.8671875 9.91015625 C-12.61081543 10.33433838 -13.35444336 10.75852051 -14.12060547 11.19555664 C-15.05090576 11.5937561 -15.05090576 11.5937561 -16 12 C-16.66 11.67 -17.32 11.34 -18 11 C-12.06 7.37 -6.12 3.74 0 0 Z " fill="#BFBDBF" transform="translate(202,169)"/>
<path d="M0 0 C0.66 0 1.32 0 2 0 C2.79953138 3.28696233 3.09658936 4.71023192 2 8 C1.77202438 10.73289293 1.58331813 13.45042204 1.4375 16.1875 C1.39431641 16.93708984 1.35113281 17.68667969 1.30664062 18.45898438 C1.20077315 20.30578375 1.0999024 22.15286834 1 24 C0.67 24 0.34 24 0 24 C0 16.08 0 8.16 0 0 Z " fill="#3A82EA" transform="translate(117,152)"/>
<path d="M0 0 C3.77545388 1.09068668 6.47043472 1.9083091 9 5 C7.35 5.33 5.7 5.66 4 6 C4 6.66 4 7.32 4 8 C3.01 8 2.02 8 1 8 C0.67 5.36 0.34 2.72 0 0 Z " fill="#2E61C7" transform="translate(22,63)"/>
<path d="M0 0 C4.29 0 8.58 0 13 0 C11.68 1.32 10.36 2.64 9 4 C6.640625 3.953125 6.640625 3.953125 4.25 3.25 C3.45078125 3.02828125 2.6515625 2.8065625 1.828125 2.578125 C1.22484375 2.38734375 0.6215625 2.1965625 0 2 C0 1.34 0 0.68 0 0 Z " fill="#366DD1" transform="translate(35,64)"/>
<path d="M0 0 C-0.66 1.65 -1.32 3.3 -2 5 C-2.66 5 -3.32 5 -4 5 C-4 4.34 -4 3.68 -4 3 C-4.66 3 -5.32 3 -6 3 C-6.33 4.32 -6.66 5.64 -7 7 C-8.65 7.33 -10.3 7.66 -12 8 C-11.67 7.34 -11.34 6.68 -11 6 C-10.01 6 -9.02 6 -8 6 C-7.566875 4.7934375 -7.566875 4.7934375 -7.125 3.5625 C-5.3773462 -0.41826699 -4.39661496 0 0 0 Z " fill="#4B90F0" transform="translate(94,127)"/>
<path d="M0 0 C2.69082872 0.17635452 5.32851446 0.61835921 8 1 C8 1.66 8 2.32 8 3 C3.545 4.485 3.545 4.485 -1 6 C-1.042721 4.33388095 -1.04063832 2.66617115 -1 1 C-0.67 0.67 -0.34 0.34 0 0 Z " fill="#3D82EB" transform="translate(153,80)"/>
<path d="M0 0 C-0.33 1.32 -0.66 2.64 -1 4 C-2.32 4 -3.64 4 -5 4 C-5 4.99 -5 5.98 -5 7 C-6.98 7 -8.96 7 -11 7 C-11 6.34 -11 5.68 -11 5 C-9.54462432 4.16151196 -8.08559627 3.32936066 -6.625 2.5 C-5.81289062 2.0359375 -5.00078125 1.571875 -4.1640625 1.09375 C-2 0 -2 0 0 0 Z " fill="#3C65CA" transform="translate(110,9)"/>
<path d="M0 0 C1.98 0 3.96 0 6 0 C5.34 0.66 4.68 1.32 4 2 C4.66 2.33 5.32 2.66 6 3 C6 4.32 6 5.64 6 7 C2.73045798 6.43628586 1.17424117 5.50037734 -1 3 C-0.67 2.01 -0.34 1.02 0 0 Z " fill="#2F61C7" transform="translate(34,168)"/>
<path d="M0 0 C1.32 0 2.64 0 4 0 C4 1.98 4 3.96 4 6 C3.01 6.495 3.01 6.495 2 7 C-0.4750171 5.88568235 -2.67883419 4.41849022 -5 3 C-4.360625 2.87625 -3.72125 2.7525 -3.0625 2.625 C-2.0415625 2.315625 -2.0415625 2.315625 -1 2 C-0.67 1.34 -0.34 0.68 0 0 Z " fill="#4D88E2" transform="translate(156,130)"/>
<path d="M0 0 C0 0.99 0 1.98 0 3 C-1.11375 3.309375 -2.2275 3.61875 -3.375 3.9375 C-6.7945155 4.82326483 -6.7945155 4.82326483 -9 6 C-9 5.01 -9 4.02 -9 3 C-8.01 2.67 -7.02 2.34 -6 2 C-6.66 1.34 -7.32 0.68 -8 0 C-4.71023192 -1.09658936 -3.28696233 -0.79953138 0 0 Z " fill="#437EE7" transform="translate(60,138)"/>
<path d="M0 0 C-1.65 1.32 -3.3 2.64 -5 4 C-7.475 3.01 -7.475 3.01 -10 2 C-10 1.34 -10 0.68 -10 0 C-6.7169902 -1.6415049 -3.57454967 -0.51888624 0 0 Z " fill="#3A72D7" transform="translate(187,67)"/>
<path d="M0 0 C3.59391114 1.33488128 6.75490696 2.96022723 10 5 C6.8035914 6.06546953 4.34252724 6.07427838 1 6 C0 1.125 0 1.125 0 0 Z " fill="#C9CCD3" transform="translate(143,20)"/>
<path d="M0 0 C3.93673644 1.31224548 6.22719294 2.91910327 9 6 C8.01 6.495 8.01 6.495 7 7 C4.5249829 5.88568235 2.32116581 4.41849022 0 3 C0 2.01 0 1.02 0 0 Z " fill="#EFF4F8" transform="translate(51,183)"/>
<path d="M0 0 C0.99 0 1.98 0 3 0 C3 0.66 3 1.32 3 2 C3.66 2.33 4.32 2.66 5 3 C3.68 3 2.36 3 1 3 C1 3.66 1 4.32 1 5 C2.32 5.66 3.64 6.32 5 7 C3.02 7.99 3.02 7.99 1 9 C0 8 0 8 -0.09765625 6.15234375 C-0.06510417 4.1015625 -0.03255208 2.05078125 0 0 Z " fill="#3064C6" transform="translate(23,152)"/>
<path d="M0 0 C3.96 1.98 3.96 1.98 8 4 C7.67 4.66 7.34 5.32 7 6 C4.69 6 2.38 6 0 6 C0.33 5.34 0.66 4.68 1 4 C0.34 3.34 -0.32 2.68 -1 2 C-0.67 1.34 -0.34 0.68 0 0 Z " fill="#468AF0" transform="translate(70,90)"/>
<path d="M0 0 C2.91517292 1.07401108 4.77810176 1.77810176 7 4 C4.69 4.66 2.38 5.32 0 6 C0 5.34 0 4.68 0 4 C-0.66 3.34 -1.32 2.68 -2 2 C-1.34 2 -0.68 2 0 2 C0 1.34 0 0.68 0 0 Z " fill="#366DD6" transform="translate(156,184)"/>
<path d="M0 0 C0.33 1.32 0.66 2.64 1 4 C-0.65 4.66 -2.3 5.32 -4 6 C-4 5.34 -4 4.68 -4 4 C-5.32 4.33 -6.64 4.66 -8 5 C-3.16129032 0 -3.16129032 0 0 0 Z " fill="#DDEAFA" transform="translate(84,127)"/>
<path d="M0 0 C2.16147703 1.08073852 3.41039672 2.19363264 5 4 C5 4.66 5 5.32 5 6 C3.02 6.66 1.04 7.32 -1 8 C-1 5.16032769 -0.59732819 2.76264289 0 0 Z " fill="#3F8DF5" transform="translate(137,88)"/>
<path d="M0 0 C4.43090471 1.20842856 6.98112756 2.51668565 10 6 C6.625 6.125 6.625 6.125 3 6 C2.34 5.34 1.68 4.68 1 4 C1.66 4 2.32 4 3 4 C3 3.34 3 2.68 3 2 C2.01 1.67 1.02 1.34 0 1 C0 0.67 0 0.34 0 0 Z " fill="#3262C7" transform="translate(172,42)"/>
<path d="M0 0 C-2.68841859 2.25245881 -4.64641875 3.88213958 -8 5 C-8.33 4.34 -8.66 3.68 -9 3 C-5.83583464 -0.30799106 -4.50236011 -1.35070803 0 0 Z " fill="#F0F4F4" transform="translate(168,189)"/>
<path d="M0 0 C1.9375 0.375 1.9375 0.375 4 1 C4.33 1.66 4.66 2.32 5 3 C5.99 3.33 6.98 3.66 8 4 C5 6 5 6 2.3125 5.625 C1.549375 5.41875 0.78625 5.2125 0 5 C0 3.35 0 1.7 0 0 Z " fill="#336BD5" transform="translate(168,176)"/>
<path d="M0 0 C6.75 -0.125 6.75 -0.125 9 1 C8.67 1.99 8.34 2.98 8 4 C4.31245243 3.50168276 2.39509338 2.89932357 0 0 Z " fill="#3262C9" transform="translate(24,166)"/>
<path d="M0 0 C2.475 0.99 2.475 0.99 5 2 C4.67 2.99 4.34 3.98 4 5 C4.33 5.66 4.66 6.32 5 7 C1.62496331 5.8141763 -0.64722731 4.72426311 -3 2 C-2.01 2 -1.02 2 0 2 C0 1.34 0 0.68 0 0 Z " fill="#D6E6FA" transform="translate(145,129)"/>
<path d="M0 0 C1.98 0 3.96 0 6 0 C6 1.32 6 2.64 6 4 C4.68 4.33 3.36 4.66 2 5 C2 4.34 2 3.68 2 3 C1.34 2.67 0.68 2.34 0 2 C0 1.34 0 0.68 0 0 Z " fill="#57A0FA" transform="translate(118,120)"/>
<path d="M0 0 C4.455 1.98 4.455 1.98 9 4 C7.02 4.99 7.02 4.99 5 6 C4.01 5.67 3.02 5.34 2 5 C2 4.34 2 3.68 2 3 C1.34 3 0.68 3 0 3 C0 2.01 0 1.02 0 0 Z " fill="#579DF7" transform="translate(94,104)"/>
<path d="M0 0 C0 1.32 0 2.64 0 4 C-1.98 4.33 -3.96 4.66 -6 5 C-6 3.68 -6 2.36 -6 1 C-3.92446352 0.4465236 -2.15634036 0 0 0 Z " fill="#4189ED" transform="translate(145,98)"/>
<path d="M0 0 C2.97 0.33 5.94 0.66 9 1 C9 2.32 9 3.64 9 5 C4.89198233 3.81323934 3.10551666 3.10551666 0 0 Z " fill="#4074D5" transform="translate(39,67)"/>
<path d="M0 0 C0 2.31 0 4.62 0 7 C-1.32 6.34 -2.64 5.68 -4 5 C-4 4.34 -4 3.68 -4 3 C-4.66 2.67 -5.32 2.34 -6 2 C-3 0 -3 0 0 0 Z " fill="#3365CC" transform="translate(56,41)"/>
<path d="M0 0 C6.52307692 0.61538462 6.52307692 0.61538462 8.9375 2.5625 C9.288125 3.036875 9.63875 3.51125 10 4 C6.05272412 4.17942163 3.4019487 4.09350689 0 2 C0 1.34 0 0.68 0 0 Z " fill="#EAF0F7" transform="translate(146,25)"/>
<path d="M0 0 C1.65 0.33 3.3 0.66 5 1 C5.33 1.99 5.66 2.98 6 4 C3 5 3 5 0.8125 4.0625 C0.214375 3.711875 -0.38375 3.36125 -1 3 C-0.67 2.01 -0.34 1.02 0 0 Z " fill="#EFF4FA" transform="translate(77,91)"/>
<path d="M0 0 C0.66 0.33 1.32 0.66 2 1 C1 4 1 4 -0.875 5.1875 C-3 6 -3 6 -6 6 C-5 3 -5 3 -2.5625 1.25 C-1.716875 0.8375 -0.87125 0.425 0 0 Z " fill="#F4F7F7" transform="translate(67,29)"/>
<path d="M0 0 C0 2 0 4 0 6 C-1.98 5.01 -3.96 4.02 -6 3 C-3.375 0 -3.375 0 0 0 Z " fill="#3F70CD" transform="translate(85,196)"/>
<path d="M0 0 C3.96 1.98 3.96 1.98 8 4 C5 6 5 6 2.8125 5.625 C2.214375 5.41875 1.61625 5.2125 1 5 C0.67 3.35 0.34 1.7 0 0 Z " fill="#DCE6F4" transform="translate(68,192)"/>
<path d="M0 0 C5.75 1.75 5.75 1.75 8 4 C5.6875 4.625 5.6875 4.625 3 5 C2.01 4.34 1.02 3.68 0 3 C0 2.01 0 1.02 0 0 Z " fill="#EDF1F5" transform="translate(138,19)"/>
<path d="M0 0 C0.66 0.33 1.32 0.66 2 1 C-5.11389522 6.55580866 -5.11389522 6.55580866 -10 7 C-7.01767477 3.67356033 -4.13629913 1.70847138 0 0 Z " fill="#BDBFBB" transform="translate(182,181)"/>
<path d="M0 0 C0 3 0 3 -2 5.1875 C-2.66 5.785625 -3.32 6.38375 -4 7 C-4.33 6.34 -4.66 5.68 -5 5 C-5.66 4.67 -6.32 4.34 -7 4 C-4.69 2.68 -2.38 1.36 0 0 Z " fill="#E5EDF6" transform="translate(179,179)"/>
<path d="M0 0 C1.4540625 0.0309375 1.4540625 0.0309375 2.9375 0.0625 C2.9375 1.3825 2.9375 2.7025 2.9375 4.0625 C-1.8125 3.3125 -1.8125 3.3125 -4.0625 1.0625 C-3.0625 0.0625 -3.0625 0.0625 0 0 Z " fill="#3D68CB" transform="translate(93.0625,202.9375)"/>
<path d="M0 0 C0.66 0.33 1.32 0.66 2 1 C1.67 1.33 1.34 1.66 1 2 C1.66 2.66 2.32 3.32 3 4 C1.35 4.66 -0.3 5.32 -2 6 C-2.33 4.68 -2.66 3.36 -3 2 C-2.01 1.34 -1.02 0.68 0 0 Z " fill="#D3D9DD" transform="translate(82,19)"/>
<path d="M0 0 C0.66 0.33 1.32 0.66 2 1 C0.75 2.5 0.75 2.5 -1 4 C-2.32 4 -3.64 4 -5 4 C-5.33 4.66 -5.66 5.32 -6 6 C-6 5.01 -6 4.02 -6 3 C-4.03533587 1.93224776 -2.03144641 0.93446535 0 0 Z " fill="#F6F7F5" transform="translate(190,178)"/>
<path d="M0 0 C-1.32 0.99 -2.64 1.98 -4 3 C-4 2.34 -4 1.68 -4 1 C-5.98 1 -7.96 1 -10 1 C-9.67 0.34 -9.34 -0.32 -9 -1 C-5.26793158 -2.21040057 -3.31957615 -2.0901035 0 0 Z " fill="#D8EBFD" transform="translate(128,105)"/>
<path d="M0 0 C1.98 0.99 3.96 1.98 6 3 C5.01 3.33 4.02 3.66 3 4 C2.67 4.66 2.34 5.32 2 6 C0.68 5.01 -0.64 4.02 -2 3 C-1.34 2.67 -0.68 2.34 0 2 C0 1.34 0 0.68 0 0 Z " fill="#D7EAF9" transform="translate(95,100)"/>
<path d="M0 0 C0.99 0.33 1.98 0.66 3 1 C3 1.99 3 2.98 3 4 C0.69 4 -1.62 4 -4 4 C-2.68 2.68 -1.36 1.36 0 0 Z " fill="#3368CC" transform="translate(61,36)"/>
<path d="M0 0 C-0.99 0.495 -0.99 0.495 -2 1 C-2 1.66 -2 2.32 -2 3 C-4.31 3 -6.62 3 -9 3 C-6.38997624 -0.48003168 -4.1689578 -0.27793052 0 0 Z " fill="#3366C7" transform="translate(93,21)"/>
<path d="M0 0 C3.465 1.485 3.465 1.485 7 3 C6.01 3.99 5.02 4.98 4 6 C2.62437146 4.71034824 1.29233607 3.37310707 0 2 C0 1.34 0 0.68 0 0 Z " fill="#F0F2F7" transform="translate(129,13)"/>
<path d="M0 0 C-4.75 3 -4.75 3 -7 3 C-7 3.66 -7 4.32 -7 5 C-7.66 5 -8.32 5 -9 5 C-8.875 3.125 -8.875 3.125 -8 1 C-2.71910112 -1.35955056 -2.71910112 -1.35955056 0 0 Z " fill="#C5C5C3" transform="translate(105,8)"/>
<path d="M0 0 C3.48330216 0.64505596 6.09432866 1.98217268 9 4 C9 4.66 9 5.32 9 6 C5.88802644 4.50164236 2.91164984 2.86022073 0 1 C0 0.67 0 0.34 0 0 Z " fill="#C3C5C3" transform="translate(55,189)"/>
<path d="M0 0 C0.99 0.33 1.98 0.66 3 1 C3.33 1.99 3.66 2.98 4 4 C3.01 4 2.02 4 1 4 C0.67 4.99 0.34 5.98 0 7 C-0.93423645 3.98968256 -1.04449911 3.13349732 0 0 Z " fill="#2B61C7" transform="translate(193,162)"/>
<path d="M0 0 C-1 2 -1 2 -2.8125 2.75 C-5.49828639 3.05694702 -6.7252187 2.38111722 -9 1 C-5.64919071 -1.10976881 -3.77897651 -1.0497157 0 0 Z " fill="#3F6ECD" transform="translate(43,158)"/>
<path d="M0 0 C2.25 0.25 2.25 0.25 4 1 C3.67 1.66 3.34 2.32 3 3 C0.67843403 3.40729228 -1.6568787 3.74438677 -4 4 C-2.25 1.9375 -2.25 1.9375 0 0 Z " fill="#3D7FE8" transform="translate(60,146)"/>
<path d="M0 0 C1.32 0.33 2.64 0.66 4 1 C1.03 2.65 -1.94 4.3 -5 6 C-3 2 -3 2 0 0 Z " fill="#C6C4C5" transform="translate(22,53)"/>
<path d="M0 0 C2.475 0.99 2.475 0.99 5 2 C4.34 3.32 3.68 4.64 3 6 C2.34 5.67 1.68 5.34 1 5 C0.375 2.4375 0.375 2.4375 0 0 Z " fill="#406CCC" transform="translate(116,9)"/>
</svg>
