<?xml version="1.0" encoding="UTF-8"?>
<svg version="1.1" xmlns="http://www.w3.org/2000/svg" width="500" height="500">
<path d="M0 0 C117.48 0 234.96 0 356 0 C356 7.08438053 355.9932165 13.85767304 355.35270691 20.85784912 C355.28289303 21.66786064 355.21307915 22.47787216 355.1411497 23.31242949 C354.90915404 25.98966537 354.66980754 28.66618922 354.43041992 31.34277344 C354.26042795 33.28689813 354.09089915 35.23106337 353.92179298 37.17526531 C353.46071801 42.46134904 352.99325164 47.74685047 352.52470994 53.03227687 C352.02632842 58.66766813 351.53408181 64.30359537 351.04118347 69.93946838 C350.19928771 79.55690632 349.35383551 89.17402579 348.50579834 98.79092407 C347.18800634 113.73543797 345.8766744 128.68051443 344.56689453 143.62573242 C344.34877197 146.11441522 344.13064886 148.60309796 343.91252518 151.09178066 C343.58609243 154.81625067 343.25966912 158.54072149 342.93328261 162.26519555 C342.28233924 169.69279133 341.63080937 177.12033539 340.97882724 184.54784006 C338.39829437 213.9474065 335.83769396 243.34852853 333.32421875 272.75390625 C333.19060764 274.31616895 333.05699094 275.87843117 332.92336845 277.4406929 C331.73081087 291.38608943 330.54244828 305.33183686 329.36042881 319.27813053 C328.94858355 324.13135004 328.5346369 328.98438871 328.1201725 333.83738518 C327.84639129 337.05299941 327.57572663 340.26886529 327.30522156 343.48475647 C327.14425402 345.3704683 326.98311785 347.25616575 326.82177734 349.1418457 C326.75231997 349.97878841 326.68286261 350.81573112 326.61130047 351.67803574 C326.27945271 355.51629779 325.86749459 359.23648027 325 363 C324.24009766 363.21059052 323.48019531 363.42118103 322.69726562 363.63815308 C287.42884842 373.41316904 252.16634341 383.20816351 216.9375 393.125 C216.24807312 393.31905174 215.55864624 393.51310349 214.84832764 393.71303558 C208.07416076 395.61984754 201.30034171 397.52789371 194.52709961 399.43798828 C193.55731171 399.70919495 192.5875238 399.98040161 191.58834839 400.25982666 C190.03355941 400.70443966 188.4829537 401.16474999 186.94216919 401.65570068 C180.60564609 403.66224624 175.06021278 403.26289474 168.72265625 401.48144531 C167.50835434 401.14487411 166.29405243 400.80830292 165.04295349 400.46153259 C163.71608763 400.08389877 162.38927143 399.70609045 161.0625 399.328125 C159.65130481 398.93330935 158.23988597 398.53929235 156.82826233 398.14601135 C153.01045411 397.07989043 149.19588761 396.00257708 145.38185501 394.92303848 C141.38968451 393.7949747 137.39476528 392.67672961 133.40014648 391.55737305 C126.70249418 389.67918178 120.00670482 387.79447181 113.31201172 385.90576172 C103.87740734 383.24440711 94.43791552 380.60070942 84.99742508 377.96032333 C78.47416827 376.13515027 71.95214851 374.30556207 65.43005371 372.47624207 C63.05827444 371.81131537 60.68626239 371.1472244 58.31420898 370.48327637 C54.5965678 369.44236318 50.87991159 368.39800361 47.16399956 367.35093498 C45.7972379 366.96637143 44.43015251 366.5829564 43.06273079 366.20074654 C41.2037961 365.68094566 39.34612105 365.15664611 37.48852539 364.63208008 C36.44660538 364.33932693 35.40468536 364.04657379 34.33119202 363.74494934 C32 363 32 363 31 362 C30.75783745 360.40486929 30.58045127 358.79990464 30.42709351 357.19380188 C30.32177118 356.10568049 30.21644886 355.01755911 30.10793495 353.89646435 C29.99287794 352.65099488 29.87782093 351.40552542 29.75927734 350.12231445 C29.63045633 348.75698239 29.50152168 347.39166105 29.37248802 346.02634907 C27.25898535 323.47664743 25.34816863 300.90766802 23.3966972 278.34351919 C22.78027152 271.21666233 22.1620404 264.08996236 21.54375355 256.96326677 C20.43517724 244.18468237 19.32798529 231.40597843 18.22167969 218.62719727 C17.16159484 206.38233726 16.10080201 194.13753892 15.0390625 181.89282227 C14.97397679 181.14220625 14.90889108 180.39159023 14.84183307 179.61822828 C14.57975475 176.59578048 14.31767201 173.57333306 14.05558328 170.55088617 C12.4263774 151.76251429 10.79774782 132.97409239 9.1700425 114.18559045 C9.05433084 112.84994925 8.93861325 111.51430855 8.8228897 110.17866837 C8.20517412 103.04904464 7.58804598 95.9193709 6.97239113 88.7895689 C5.96019622 77.07035629 4.94472796 65.35146588 3.91498291 53.6337828 C3.44126759 48.2422395 2.97070296 42.85042189 2.50017428 37.45859969 C2.27689903 34.90796675 2.05240115 32.35744051 1.82659841 29.80703008 C1.51574337 26.29494377 1.20912033 22.78251124 0.90341187 19.26997375 C0.81125137 18.24137367 0.71909088 17.21277359 0.62413764 16.15300381 C0.54128461 15.19168573 0.45843158 14.23036764 0.37306786 13.23991871 C0.30057331 12.41596224 0.22807877 11.59200576 0.15338743 10.74308091 C-0.04656426 7.16727504 0 3.58139196 0 0 Z M126 75 C126 140.67 126 206.34 126 274 C118.08 271.525 118.08 271.525 110 269 C105.69195387 267.78876104 101.38648462 266.59872148 97.0625 265.44921875 C95.93094482 265.14554886 94.79938965 264.84187897 93.63354492 264.52900696 C90.08984871 263.57874831 86.54495984 262.63303237 83 261.6875 C80.5676271 261.03611054 78.13533479 260.38442008 75.703125 259.73242188 C69.80314662 258.15092222 63.90156923 256.57559959 58 255 C58 268.2 58 281.4 58 295 C63.19559788 296.73186596 68.25737713 298.4117186 73.51245117 299.8659668 C74.71628952 300.20029221 75.92012787 300.53461761 77.16044617 300.8790741 C78.45459595 301.23587752 79.74877088 301.59258978 81.04296875 301.94921875 C82.4155986 302.32916492 83.78818158 302.70928049 85.16072083 303.08955383 C88.04074189 303.88694461 90.9211981 304.68273694 93.80200195 305.47729492 C97.39560141 306.46851232 100.98829992 307.46294656 104.58070183 308.45849419 C118.70167138 312.37093356 132.83135427 316.25095188 146.98470497 320.04477882 C148.31125638 320.40048925 149.63760327 320.75696333 150.96373558 321.11423302 C152.78543168 321.60454155 154.60814446 322.09106812 156.4309082 322.57739258 C157.46206253 322.85327713 158.49321686 323.12916168 159.55561829 323.41340637 C161.90516737 324.07778371 161.90516737 324.07778371 164 324 C164 241.83 164 159.66 164 75 C151.46 75 138.92 75 126 75 Z M192 76 C192 125.83 192 175.66 192 227 C213.12 223.7 234.24 220.4 256 217 C255.34 221.29 254.68 225.58 254 230 C253.61925644 233.12181564 253.25481133 236.23629259 252.9296875 239.36328125 C252.84373322 240.16614059 252.75777893 240.96899994 252.66921997 241.79618835 C252.40165878 244.3013352 252.13823754 246.80689555 251.875 249.3125 C251.69168355 251.03583681 251.50809163 252.75914434 251.32421875 254.48242188 C250.87964279 258.6546179 250.43877257 262.82718984 250 267 C243.52956955 269.55500784 236.98360022 271.50379218 230.28125 273.35546875 C229.18276733 273.66196854 228.08428467 273.96846832 226.95251465 274.28425598 C223.4692613 275.25533794 219.98466311 276.22149053 216.5 277.1875 C214.1275134 277.84798136 211.75511658 278.50878527 209.3828125 279.16992188 C203.58973232 280.78428723 197.79485673 282.39196974 192 284 C192 297.2 192 310.4 192 324 C198.23445805 322.75310839 204.26470842 321.48395325 210.35546875 319.76928711 C211.1242485 319.5560228 211.89302826 319.34275848 212.68510437 319.12303162 C215.18690656 318.42801794 217.68722342 317.72782396 220.1875 317.02734375 C221.93954364 316.53909311 223.69166078 316.05110613 225.44384766 315.56336975 C229.09552739 314.54606301 232.74651102 313.52630756 236.39697266 312.50463867 C241.08118498 311.19375492 245.76679864 309.88796519 250.45289612 308.58383846 C254.06147063 307.57919135 257.6694579 306.57244937 261.2772522 305.56500435 C263.00592589 305.08244555 264.73474632 304.60041207 266.4637146 304.11890984 C268.86961777 303.44842933 271.27475458 302.77526948 273.6796875 302.10131836 C274.39549484 301.90233948 275.11130219 301.7033606 275.84880066 301.49835205 C279.50926015 300.47818044 279.50926015 300.47818044 283 299 C283.62419621 296.37500863 283.62419621 296.37500863 283.97607422 293.04663086 C284.05683638 292.39071174 284.13759853 291.73479261 284.22080803 291.05899715 C285.51439756 280.15016506 286.41303318 269.19496211 287.3828125 258.25390625 C287.60387378 255.78667204 287.82522256 253.31946358 288.04684448 250.85227966 C288.62507278 244.40665578 289.19943347 237.9606931 289.77294922 231.51464844 C290.3605893 224.91775688 290.95194201 218.32119822 291.54296875 211.72460938 C292.69891633 198.81672685 293.85089873 185.90849372 295 173 C289.59993317 173.77789646 284.20040014 174.5593818 278.80126953 175.34375 C276.97685712 175.60833273 275.15231875 175.87204875 273.32763672 176.13476562 C258.84461171 178.22096313 244.43878286 180.59353619 230 183 C230 159.9 230 136.8 230 113 C264.155 113.495 264.155 113.495 299 114 C300.68332288 101.37507837 301.896629 88.68876648 303 76 C266.37 76 229.74 76 192 76 Z " fill="#E3BC00" transform="translate(72,97)"/>
<path d="M0 0 C46.86 0 93.72 0 142 0 C142 7.38632353 141.93761445 14.37937896 141.1953125 21.6640625 C141.11127167 22.53984955 141.02723083 23.4156366 140.94064331 24.31796265 C140.67412461 27.08752767 140.40011929 29.85627733 140.125 32.625 C139.76998303 36.24185794 139.41857634 39.85904812 139.0703125 43.4765625 C138.98072266 44.40712967 138.89113281 45.33769684 138.79882812 46.29646301 C138.14420125 53.2093037 137.58831139 60.12648085 137.0703125 67.05078125 C135.84702901 83.3738213 134.40967595 99.67753643 132.97656631 115.98322296 C132.74668407 118.60024926 132.51736409 121.21732432 132.28817749 123.83441162 C130.01485623 149.78365788 127.66353124 175.72493489 125.25102901 201.66157341 C121.95623695 237.0898811 118.91866552 272.5388865 116 308 C110.47709851 309.88383574 104.9424449 311.64810444 99.3125 313.1875 C98.57193359 313.39181641 97.83136719 313.59613281 97.06835938 313.80664062 C88.72917948 316.09543702 80.36917982 318.30737856 72.01174927 320.52838135 C63.89933274 322.68434849 55.79527491 324.86396551 47.71411133 327.13452148 C41.05371406 329.00061804 34.37002103 330.77754613 27.6875 332.5625 C19.77769297 334.67595491 11.91336891 336.84199026 4.125 339.37109375 C2 340 2 340 0 340 C0 227.8 0 115.6 0 0 Z M14 44 C14 93.83 14 143.66 14 195 C35.12 191.7 56.24 188.4 78 185 C77.34 189.29 76.68 193.58 76 198 C75.61925644 201.12181564 75.25481133 204.23629259 74.9296875 207.36328125 C74.84373322 208.16614059 74.75777893 208.96899994 74.66921997 209.79618835 C74.40165878 212.3013352 74.13823754 214.80689555 73.875 217.3125 C73.69168355 219.03583681 73.50809163 220.75914434 73.32421875 222.48242188 C72.87964279 226.6546179 72.43877257 230.82718984 72 235 C65.52956955 237.55500784 58.98360022 239.50379218 52.28125 241.35546875 C51.18276733 241.66196854 50.08428467 241.96846832 48.95251465 242.28425598 C45.4692613 243.25533794 41.98466311 244.22149053 38.5 245.1875 C36.1275134 245.84798136 33.75511658 246.50878527 31.3828125 247.16992188 C25.58973232 248.78428723 19.79485673 250.39196974 14 252 C14 265.2 14 278.4 14 292 C20.23445805 290.75310839 26.26470842 289.48395325 32.35546875 287.76928711 C33.1242485 287.5560228 33.89302826 287.34275848 34.68510437 287.12303162 C37.18690656 286.42801794 39.68722342 285.72782396 42.1875 285.02734375 C43.93954364 284.53909311 45.69166078 284.05110613 47.44384766 283.56336975 C51.09552739 282.54606301 54.74651102 281.52630756 58.39697266 280.50463867 C63.08118498 279.19375492 67.76679864 277.88796519 72.45289612 276.58383846 C76.06147063 275.57919135 79.6694579 274.57244937 83.2772522 273.56500435 C85.00592589 273.08244555 86.73474632 272.60041207 88.4637146 272.11890984 C90.86961777 271.44842933 93.27475458 270.77526948 95.6796875 270.10131836 C96.39549484 269.90233948 97.11130219 269.7033606 97.84880066 269.49835205 C101.50926015 268.47818044 101.50926015 268.47818044 105 267 C105.62419621 264.37500863 105.62419621 264.37500863 105.97607422 261.04663086 C106.05683638 260.39071174 106.13759853 259.73479261 106.22080803 259.05899715 C107.51439756 248.15016506 108.41303318 237.19496211 109.3828125 226.25390625 C109.60387378 223.78667204 109.82522256 221.31946358 110.04684448 218.85227966 C110.62507278 212.40665578 111.19943347 205.9606931 111.77294922 199.51464844 C112.3605893 192.91775688 112.95194201 186.32119822 113.54296875 179.72460938 C114.69891633 166.81672685 115.85089873 153.90849372 117 141 C111.59993317 141.77789646 106.20040014 142.5593818 100.80126953 143.34375 C98.97685712 143.60833273 97.15231875 143.87204875 95.32763672 144.13476562 C80.84461171 146.22096313 66.43878286 148.59353619 52 151 C52 127.9 52 104.8 52 81 C86.155 81.495 86.155 81.495 121 82 C122.68332288 69.37507837 123.896629 56.68876648 125 44 C88.37 44 51.74 44 14 44 Z " fill="#FDD800" transform="translate(250,129)"/>
<path d="M0 0 C20.79 0 41.58 0 63 0 C63 5.94 63 11.88 63 18 C48.15 18 33.3 18 18 18 C18 20.31 18 22.62 18 25 C32.85 25 47.7 25 63 25 C63 38.86 63 52.72 63 67 C42.21 67 21.42 67 0 67 C0 60.73 0 54.46 0 48 C14.85 48 29.7 48 45 48 C45 46.02 45 44.04 45 42 C30.15 42 15.3 42 0 42 C0 28.14 0 14.28 0 0 Z " fill="#000000" transform="translate(248,0)"/>
<path d="M0 0 C6.27 0 12.54 0 19 0 C19 22.11 19 44.22 19 67 C3.16 67 -12.68 67 -29 67 C-29 60.73 -29 54.46 -29 48 C-19.76 48 -10.52 48 -1 48 C-0.67 32.16 -0.34 16.32 0 0 Z " fill="#000000" transform="translate(220,0)"/>
</svg>
